P3
3 382
255
140 82 68 128 158 168 124 154 164 
61 57 56 156 88 67 130 158 170 
58 54 53 142 137 131 131 158 177 
59 55 56 136 132 129 129 155 178 
62 56 58 146 141 135 129 155 180 
62 56 58 161 119 94 135 156 183 
59 53 55 128 121 115 140 158 182 
56 50 52 144 117 100 140 157 177 
66 61 67 128 128 126 156 166 176 
66 61 67 123 114 109 167 174 182 
62 61 67 138 103 84 181 182 184 
60 61 66 128 87 65 190 184 184 
54 57 64 133 135 130 201 189 189 
48 53 59 144 146 143 212 196 197 
41 48 56 148 121 112 216 196 198 
38 45 53 146 139 131 212 192 194 
31 39 50 159 121 100 212 192 191 
32 40 51 137 153 176 212 194 190 
35 41 53 161 124 105 207 192 185 
36 42 54 138 133 130 200 188 176 
36 42 54 156 124 99 196 184 170 
36 42 54 145 107 88 194 185 170 
35 42 52 125 131 143 193 183 173 
34 41 51 132 125 117 189 178 172 
32 39 49 121 125 134 186 175 171 
32 39 49 128 114 113 181 169 169 
31 40 49 120 117 124 186 172 172 
29 38 45 144 121 105 199 183 183 
25 36 42 131 117 106 208 191 184 
24 35 41 117 123 137 207 189 177 
24 35 41 135 112 94 206 189 171 
23 36 42 125 113 99 209 192 172 
16 33 40 98 75 67 202 184 164 
17 34 41 127 141 152 207 189 169 
19 36 43 109 71 58 215 194 173 
22 39 46 128 85 69 219 197 174 
24 42 46 102 105 112 222 198 174 
29 44 49 130 101 87 225 199 174 
32 45 51 106 90 90 232 202 176 
35 46 52 113 130 148 235 205 179 
37 46 51 119 132 149 240 209 181 
44 49 55 142 147 153 243 212 184 
52 52 60 157 153 152 246 215 187 
58 55 64 177 155 144 247 216 188 
62 55 63 150 148 149 245 213 188 
64 54 63 170 160 148 244 212 187 
66 54 64 114 132 154 242 212 188 
67 55 65 138 140 153 242 212 188 
53 48 54 180 162 150 243 211 186 
65 60 64 145 149 158 243 211 186 
71 67 68 170 163 153 245 213 188 
66 62 61 146 147 152 246 215 187 
66 61 58 134 138 141 247 216 188 
77 69 67 132 140 163 248 219 189 
87 77 75 218 186 145 250 221 191 
89 78 76 209 171 135 251 222 192 
89 75 74 183 162 143 245 218 188 
91 75 75 134 138 147 246 219 189 
96 76 77 150 147 142 247 220 190 
102 77 80 169 156 147 248 222 189 
104 77 82 129 138 147 250 226 192 
102 72 80 185 158 137 253 229 195 
94 64 72 186 158 144 255 231 197 
88 58 68 182 156 143 255 233 199 
84 56 68 200 170 146 255 238 210 
86 60 71 132 134 133 254 238 212 
92 71 80 180 155 135 254 240 213 
93 73 84 157 144 135 255 241 215 
82 64 76 155 145 133 254 242 218 
77 61 74 127 125 128 254 244 219 
74 62 76 166 150 134 255 244 222 
68 60 75 203 168 130 255 244 222 
63 59 76 151 143 130 254 246 223 
59 58 76 201 168 135 255 244 222 
55 58 77 166 151 144 255 242 216 
52 59 78 180 154 129 254 238 212 
45 56 76 176 154 141 252 235 207 
40 51 71 192 161 133 251 232 202 
38 50 72 127 132 138 249 230 198 
41 53 75 124 131 137 247 228 196 
40 53 70 93 112 127 250 234 209 
38 51 68 173 147 120 251 235 212 
38 51 68 145 141 130 253 237 214 
41 54 71 219 172 126 253 238 215 
46 59 75 157 145 131 255 240 217 
47 60 76 129 133 132 255 240 217 
42 55 71 196 158 121 255 240 217 
38 51 67 182 156 129 255 240 217 
32 46 59 153 144 135 255 241 218 
31 45 58 146 142 133 255 241 218 
31 45 58 230 184 134 255 241 218 
31 45 56 145 141 132 255 240 217 
30 44 55 166 145 124 254 239 216 
30 44 55 128 133 136 253 237 214 
30 44 55 193 164 132 252 236 213 
29 43 54 203 173 139 250 234 211 
30 44 53 155 148 142 255 230 209 
29 43 52 146 142 139 255 228 209 
27 41 50 82 100 112 252 225 208 
27 41 50 152 148 139 248 220 206 
28 42 51 129 138 137 245 217 205 
27 41 50 85 99 108 242 215 204 
26 40 49 105 116 122 240 213 204 
24 38 47 126 121 115 240 213 204 
23 37 46 118 119 114 239 210 202 
23 37 46 108 110 109 238 210 198 
22 36 45 84 90 86 238 209 193 
21 35 44 133 129 118 240 209 191 
21 35 44 101 100 95 242 210 189 
22 36 45 119 112 104 244 209 187 
24 38 47 132 122 112 244 209 181 
25 39 48 156 151 147 243 208 176 
20 37 45 108 100 87 243 209 171 
18 35 43 85 83 71 243 210 167 
19 36 44 122 113 96 244 210 164 
22 39 47 107 99 86 246 210 162 
22 39 47 133 122 104 247 209 160 
18 35 43 127 120 110 249 209 158 
17 34 42 106 96 87 250 209 155 
18 35 43 130 132 129 251 209 151 
18 35 43 115 120 114 250 205 146 
17 34 42 98 91 85 250 205 146 
16 33 41 119 110 103 251 206 147 
15 32 40 141 133 120 252 207 148 
14 31 39 167 152 133 252 210 150 
13 30 38 117 104 88 253 211 151 
12 29 37 138 119 105 253 211 153 
11 28 36 150 134 109 254 212 154 
14 29 36 113 94 79 255 210 153 
14 29 36 142 116 93 254 209 152 
14 29 36 81 68 59 255 208 152 
14 29 36 138 110 86 255 208 152 
13 28 35 130 111 81 255 209 150 
13 28 35 171 130 98 255 209 150 
13 28 35 172 127 94 254 208 148 
12 27 34 170 124 100 254 208 148 
10 25 32 190 133 104 251 205 143 
11 26 33 135 99 83 251 205 143 
12 27 34 120 75 52 251 205 143 
13 28 35 201 122 79 252 207 142 
13 28 35 148 117 99 252 207 142 
12 27 34 211 129 69 253 208 141 
11 26 33 130 85 64 253 208 141 
10 25 32 160 95 67 253 208 141 
10 25 32 133 81 60 254 207 137 
10 25 32 164 89 60 253 206 136 
10 25 32 127 79 59 253 205 133 
10 25 32 102 82 73 252 202 131 
10 25 30 173 91 67 251 198 128 
10 25 30 100 64 52 251 194 127 
10 25 30 103 73 63 249 190 124 
10 25 30 91 67 57 248 187 122 
9 24 27 101 64 48 246 181 117 
10 25 28 153 94 64 246 181 117 
11 26 29 195 111 77 245 177 114 
12 27 30 87 53 54 239 171 108 
12 28 28 126 70 53 235 167 106 
11 27 27 102 56 43 234 166 105 
10 26 26 116 64 50 237 169 108 
9 25 25 79 55 51 241 173 112 
7 22 27 188 134 90 238 169 110 
9 24 29 139 92 72 235 166 107 
11 26 31 133 102 81 228 158 99 
12 27 32 160 121 92 220 150 91 
13 28 33 94 61 46 216 146 87 
13 28 33 70 49 44 216 144 86 
14 27 33 141 84 64 212 140 82 
14 27 33 149 110 81 208 136 78 
18 29 35 127 71 48 199 128 74 
21 32 38 92 62 54 204 134 82 
20 31 37 129 77 64 204 137 85 
17 26 33 127 90 61 199 131 84 
16 25 32 113 77 61 188 121 76 
20 29 36 111 68 52 177 113 69 
20 31 37 62 48 39 165 103 64 
17 28 34 78 55 41 154 96 58 
17 34 41 99 71 59 137 92 61 
17 34 41 55 45 36 127 83 56 
16 34 38 38 46 48 116 76 51 
19 37 41 52 39 31 113 75 54 
27 42 47 84 59 54 111 76 56 
25 39 42 73 54 48 104 71 52 
22 33 37 67 50 43 95 66 48 
25 34 39 57 43 40 92 65 48 
25 32 38 63 43 34 87 61 46 
31 36 42 85 56 48 78 55 39 
33 36 41 64 39 32 74 51 37 
33 32 38 75 45 34 75 53 39 
38 33 39 58 50 39 80 58 44 
44 37 44 75 45 35 83 60 44 
44 37 44 58 44 43 84 61 43 
40 34 38 53 26 19 88 62 45 
43 40 35 87 46 44 102 66 50 
41 40 35 63 40 34 110 71 56 
43 44 39 108 73 51 119 76 60 
45 47 44 130 106 96 123 77 61 
40 44 43 126 102 90 125 80 61 
31 39 41 120 97 83 129 83 60 
27 37 39 103 80 66 130 82 60 
27 38 42 70 48 34 129 79 56 
37 48 52 72 51 34 130 80 53 
35 46 50 94 67 50 131 81 54 
32 43 47 90 67 49 129 82 54 
29 40 44 87 66 49 129 82 54 
28 38 40 66 49 31 127 81 55 
30 40 42 125 106 89 126 80 54 
38 43 46 83 70 54 126 82 57 
42 47 50 99 76 60 127 83 58 
53 52 50 66 52 43 124 77 51 
52 51 47 69 55 46 121 74 48 
50 49 45 144 98 85 125 78 52 
50 49 44 56 45 27 130 83 57 
54 51 46 53 42 24 132 85 57 
58 55 48 46 35 17 138 91 63 
64 59 53 154 128 105 143 96 68 
67 62 56 50 38 22 141 94 66 
68 61 53 78 59 52 134 87 57 
77 70 60 68 59 44 135 90 59 
79 71 60 114 106 93 136 91 60 
78 70 59 138 70 51 135 90 59 
82 72 60 200 193 183 136 91 58 
82 72 60 57 60 53 139 93 60 
79 69 57 53 54 49 140 94 61 
81 71 59 42 43 38 137 91 58 
90 76 65 174 151 143 153 103 68 
86 72 61 151 127 117 154 101 67 
84 70 59 130 105 85 156 100 65 
88 74 63 128 98 72 162 104 66 
98 82 69 99 73 60 169 110 70 
102 86 73 107 85 71 176 117 75 
100 84 71 118 100 90 183 122 78 
96 80 67 61 63 62 185 124 79 
102 84 70 111 73 54 193 131 84 
100 82 68 129 135 135 191 129 82 
106 88 74 72 77 80 188 127 80 
111 92 77 159 167 180 183 122 75 
110 91 76 68 51 44 178 120 72 
112 93 78 143 154 158 177 119 73 
115 96 81 73 36 43 178 122 75 
112 93 76 146 117 99 180 123 78 
121 96 76 138 123 102 179 125 81 
118 93 71 65 75 76 180 125 84 
119 94 72 104 79 57 183 128 87 
126 101 79 131 105 82 185 130 89 
136 109 88 98 98 108 188 133 92 
138 111 90 166 116 89 192 137 96 
131 104 83 132 99 80 196 141 100 
124 97 76 126 100 85 199 144 103 
114 86 65 173 119 83 200 145 104 
118 90 69 142 125 107 204 149 108 
125 94 74 159 142 124 206 151 110 
129 98 78 128 122 124 207 152 111 
129 98 78 120 78 66 209 154 113 
128 97 77 158 136 123 213 158 117 
126 95 75 116 111 107 214 159 118 
126 95 74 188 135 95 212 157 116 
131 99 76 172 118 84 207 159 110 
136 104 79 128 125 110 207 159 110 
138 106 81 156 125 105 208 160 111 
135 103 78 177 122 102 208 160 111 
136 104 79 117 58 40 208 160 111 
139 107 82 203 151 129 208 160 111 
139 105 78 213 161 137 208 160 111 
134 100 73 216 166 141 208 160 111 
140 106 79 156 104 80 208 160 111 
144 110 83 142 125 109 209 161 112 
146 111 83 220 177 145 209 161 112 
145 110 82 143 109 84 210 162 113 
146 111 83 160 131 115 210 162 113 
151 116 88 149 117 104 209 161 112 
154 117 88 148 110 89 207 159 110 
151 114 85 108 74 64 206 158 109 
152 113 80 124 112 100 204 160 115 
155 116 83 174 132 110 209 165 120 
154 115 82 160 128 107 213 169 124 
151 113 77 160 126 99 212 168 123 
157 117 82 200 162 126 211 167 122 
166 126 90 162 125 98 212 168 123 
169 130 91 148 112 88 211 168 123 
167 128 89 122 94 82 209 166 121 
169 127 87 106 89 73 211 170 124 
177 135 95 140 123 107 209 168 122 
180 137 95 133 121 109 208 167 121 
174 131 89 167 143 117 209 168 122 
172 129 86 134 117 109 209 171 124 
177 134 91 126 97 81 211 173 126 
177 134 91 152 118 90 210 172 125 
171 128 85 168 144 116 208 170 123 
174 127 85 205 170 128 213 173 124 
176 129 87 102 75 48 216 176 127 
178 131 89 138 104 79 216 176 127 
178 131 89 184 157 127 214 174 125 
177 130 88 182 158 134 215 175 126 
179 132 88 60 38 17 217 177 128 
184 135 92 143 94 64 218 178 129 
188 139 96 144 132 118 216 176 127 
184 137 91 192 172 135 218 178 129 
177 129 83 209 159 124 218 178 129 
189 138 93 151 119 78 218 178 129 
195 144 97 183 138 115 218 178 129 
185 134 87 89 72 46 218 178 129 
192 141 94 187 144 125 218 178 129 
204 152 105 184 151 120 218 178 129 
198 144 97 153 122 94 218 178 129 
188 129 87 181 154 137 215 179 131 
193 134 92 169 126 92 215 179 131 
196 137 93 195 165 141 214 178 130 
194 136 90 176 145 124 213 177 129 
190 132 86 148 120 98 213 175 126 
189 131 83 168 125 93 211 173 124 
194 136 86 195 167 145 211 173 124 
200 142 92 199 171 149 210 172 123 
191 133 83 157 142 111 211 171 120 
192 134 84 204 162 104 207 167 116 
193 135 87 207 164 122 207 165 115 
190 132 86 163 104 70 207 165 115 
186 128 82 142 75 48 204 163 111 
184 125 81 117 88 72 200 159 107 
186 127 85 184 137 91 198 157 105 
188 129 87 162 95 66 199 158 106 
189 138 95 164 117 75 198 155 104 
181 130 87 188 152 118 195 152 101 
172 119 75 151 113 77 194 151 100 
168 114 68 113 75 38 194 151 100 
170 113 68 152 116 82 192 148 99 
176 118 72 134 83 62 189 145 96 
181 120 75 174 135 104 190 146 97 
183 122 77 140 112 91 193 149 100 
171 110 66 169 126 91 188 144 97 
165 103 62 175 148 127 185 141 94 
163 101 62 145 118 97 184 140 93 
160 100 63 185 155 127 185 141 94 
158 98 62 84 59 39 183 139 94 
159 100 66 116 88 74 179 135 90 
152 96 63 132 105 78 178 134 89 
139 85 51 186 155 126 180 136 91 
134 87 61 181 151 123 179 132 88 
126 84 60 173 142 114 174 127 83 
113 78 58 154 120 93 173 126 84 
85 64 47 114 66 44 172 125 83 
59 49 39 129 102 93 167 120 78 
45 46 40 132 109 101 169 122 80 
31 41 40 135 85 58 173 125 85 
13 27 27 117 69 46 171 123 83 
11 25 28 75 29 3 160 112 72 
31 41 42 87 42 13 165 117 77 
18 20 19 111 85 62 167 119 81 
34 24 22 139 90 50 169 121 83 
86 63 57 118 79 62 149 101 63 
114 80 71 96 69 62 139 91 53 
125 81 70 139 114 107 164 116 78 
126 76 65 151 105 81 168 120 82 
115 66 51 99 50 20 138 88 55 
110 58 44 147 93 67 126 76 43 
130 77 63 142 91 70 153 103 70 
138 85 71 125 76 44 159 109 76 
129 76 62 83 37 22 141 92 60 
114 61 47 132 87 68 145 96 64 
109 57 44 129 86 70 152 103 71 
136 84 71 152 106 80 157 108 76 
126 77 63 132 91 63 149 102 72 
120 72 58 124 77 51 152 105 75 
111 68 52 167 121 97 160 113 83 
104 65 50 131 89 65 139 94 63 
112 76 60 142 102 77 124 79 50 
128 92 76 107 64 48 128 83 54 
116 83 66 126 80 65 128 83 54 
88 55 38 115 72 56 139 94 65 
108 68 58 109 74 55 141 97 72 
104 64 54 92 61 43 134 90 65 
96 56 46 125 94 76 130 88 63 
91 51 41 133 102 84 132 90 65 
105 67 58 90 57 38 134 94 68 
126 92 82 108 77 56 140 100 74 
117 84 75 113 77 51 138 101 74 
81 51 41 100 67 52 130 93 66 
105 76 68 90 62 48 120 83 56 
90 63 54 58 30 16 115 78 51 
96 72 62 72 44 30 100 60 34 
85 63 52 103 77 64 126 86 60 
61 41 30 114 76 57 155 113 88 
106 67 50 140 98 73 141 99 74 
