P3
45 74
255
255 255 255 255 255 255 255 255 255 255 255 255 255 255 255 255 255 255 255 255 255 255 255 255 255 255 255 255 255 255 255 255 255 255 255 255 255 255 255 255 255 255 255 255 255 255 255 255 255 255 255 255 255 255 255 255 255 255 255 255 255 255 255 255 255 255 255 255 255 255 255 255 255 255 255 255 255 255 255 255 255 255 255 255 255 255 255 255 255 255 255 255 255 255 255 255 255 255 255 255 255 255 255 255 255 255 255 255 255 255 255 255 255 255 255 255 255 255 255 255 255 255 255 255 255 255 255 255 255 255 255 255 255 255 255 
255 255 255 254 254 255 252 255 252 255 255 251 255 255 255 255 255 255 248 255 255 164 88 105 156 33 48 158 38 53 160 38 54 161 39 46 161 36 51 154 53 68 181 137 143 255 255 255 255 255 255 255 255 255 249 253 252 255 252 253 253 254 255 255 255 255 255 255 255 255 255 255 255 255 255 255 255 255 255 255 255 255 255 255 255 255 255 255 255 255 255 255 255 255 255 255 255 255 255 255 255 255 255 255 255 255 255 255 255 255 255 255 255 255 255 255 255 255 255 255 255 255 255 255 255 255 255 255 255 255 255 255 255 255 255 
255 255 255 255 252 251 253 255 255 255 255 255 247 240 244 148 65 80 157 24 37 214 37 40 240 26 31 239 25 30 241 25 31 239 26 26 245 23 31 236 24 32 212 34 48 140 44 53 182 137 148 196 176 177 255 255 255 251 255 255 255 253 255 255 255 255 255 255 255 255 255 255 255 255 255 255 255 255 255 255 255 255 255 255 255 255 255 255 255 255 255 255 255 255 255 255 255 255 255 255 255 255 255 255 255 255 255 255 255 255 255 255 255 255 255 255 255 255 255 255 255 255 255 255 255 255 255 255 255 255 255 255 255 255 255 
255 255 255 249 255 250 255 255 255 188 143 153 145 32 39 232 41 54 241 23 31 243 22 35 234 27 37 236 27 37 239 26 36 235 27 39 237 26 38 238 26 38 242 23 30 233 30 43 221 9 29 141 0 0 233 212 221 255 255 255 255 255 254 255 255 255 255 255 255 255 255 255 255 255 255 255 255 255 255 255 255 255 255 255 255 255 255 255 255 255 255 255 255 255 255 255 255 255 255 255 255 255 255 255 255 255 255 255 255 255 255 255 255 255 255 255 255 255 255 255 255 255 255 255 255 255 255 255 255 255 255 255 255 255 255 
255 255 255 255 255 255 197 164 176 182 35 48 244 23 36 242 23 29 236 28 35 235 27 40 234 29 32 237 26 35 244 23 38 236 28 31 233 30 30 233 30 30 239 26 31 237 27 33 241 28 31 237 33 35 141 15 29 222 188 203 255 255 255 255 255 255 252 255 255 252 254 252 253 255 253 254 255 252 254 253 251 254 254 254 255 255 255 255 255 255 255 255 255 255 255 255 255 255 255 255 255 255 255 255 255 255 255 255 255 255 255 255 255 255 255 255 255 255 255 255 255 255 255 255 255 255 255 255 255 255 255 255 255 255 255 
255 255 255 255 255 255 182 126 136 220 9 18 244 24 36 236 27 36 237 26 35 237 26 35 237 26 36 235 28 33 230 32 30 244 23 37 241 25 37 235 28 37 238 25 38 240 25 37 237 26 37 236 29 48 156 23 37 114 7 15 149 53 62 167 98 118 255 255 255 252 255 255 255 255 255 253 253 255 250 252 255 254 254 255 255 255 255 255 255 255 255 255 255 255 255 255 255 255 255 255 255 255 255 255 255 255 255 255 255 255 255 255 255 255 255 255 255 255 255 255 255 255 255 255 255 255 255 255 255 255 255 255 255 255 255 
255 255 255 255 255 255 176 121 130 224 22 30 241 24 35 237 26 36 237 26 36 234 28 35 232 29 35 246 22 35 245 22 36 232 18 26 235 19 28 244 28 40 239 32 41 240 31 31 239 34 40 167 20 32 222 191 164 254 253 196 255 249 196 159 96 76 136 36 50 194 139 154 255 255 255 255 255 255 249 255 255 253 254 255 255 255 255 255 255 255 255 255 255 255 255 255 255 255 255 255 255 255 255 255 255 255 255 255 255 255 255 255 255 255 255 255 255 255 255 255 255 255 255 255 255 255 255 255 255 255 255 255 255 255 255 
255 255 255 255 255 255 227 214 217 175 6 15 241 27 39 232 29 33 235 29 35 246 23 36 241 23 27 216 31 50 141 27 40 193 160 161 168 105 112 133 0 2 153 13 26 161 10 15 145 9 21 190 145 133 241 249 187 242 226 169 234 230 177 245 241 183 255 238 199 176 118 96 150 46 57 129 37 52 254 236 243 255 255 255 255 255 255 255 255 255 255 255 255 255 255 255 253 253 254 253 253 254 255 254 255 255 252 255 253 255 255 255 255 255 255 255 255 255 255 255 255 255 255 255 255 255 255 255 255 255 255 255 255 255 255 
255 255 255 255 255 255 253 255 255 163 0 4 247 26 36 248 21 33 242 24 31 223 18 29 191 33 52 174 124 133 255 255 255 255 255 255 168 98 116 221 26 39 245 28 42 248 27 39 224 13 35 148 76 68 251 242 195 238 228 173 239 227 176 239 226 177 238 228 176 245 238 184 250 248 193 230 210 169 123 23 31 189 138 153 161 96 106 149 45 57 134 27 44 238 237 236 255 255 255 249 255 255 253 255 255 255 253 255 253 254 255 255 255 255 255 255 255 255 255 255 255 255 255 255 255 255 255 255 255 255 255 255 255 255 255 
255 255 255 255 255 255 250 255 255 165 0 5 235 31 36 237 23 36 227 26 42 198 110 117 255 255 255 255 255 255 255 255 255 207 183 186 107 0 0 219 37 39 243 26 30 237 28 35 225 27 41 162 3 19 206 163 137 231 243 180 243 224 174 238 227 177 238 227 177 239 226 177 240 227 168 246 233 171 255 255 201 161 71 74 217 18 38 241 24 27 235 31 47 134 0 10 138 59 71 255 255 255 255 255 255 253 254 254 255 254 255 255 255 255 255 255 255 255 255 255 255 255 255 255 255 255 255 255 255 255 255 255 255 255 255 
255 255 255 255 255 255 249 255 255 165 0 5 247 23 30 231 41 54 151 85 93 255 255 255 249 253 251 254 255 255 255 255 255 155 90 102 208 44 61 243 27 32 241 25 35 245 22 40 236 29 36 217 23 41 174 98 91 255 255 204 244 244 184 245 230 179 239 227 173 236 228 175 244 229 179 240 232 175 255 255 207 139 32 35 250 24 40 230 31 31 243 24 34 234 35 43 172 2 22 142 42 62 253 251 255 255 255 255 253 254 255 255 255 255 255 255 255 255 255 255 255 255 255 255 255 255 255 255 255 255 255 255 255 255 255 
255 255 255 253 255 255 246 255 255 174 0 3 254 47 51 130 0 12 241 227 239 255 255 255 255 255 255 235 230 231 147 65 78 182 21 32 243 27 32 241 24 35 230 30 37 227 32 32 233 31 42 171 10 22 115 0 0 127 22 28 157 68 57 218 194 154 250 250 190 250 242 191 218 196 157 232 204 172 104 0 11 176 17 33 240 32 34 235 27 36 237 28 28 240 27 26 246 34 46 152 6 26 171 96 105 255 255 255 254 253 255 254 255 255 255 255 255 255 255 255 255 255 255 255 255 255 255 255 255 255 255 255 255 255 255 
255 255 255 255 255 255 232 225 224 109 0 0 115 0 0 250 238 248 249 255 255 254 254 251 255 255 255 185 144 149 205 8 17 244 28 32 243 25 27 232 29 35 239 24 37 245 24 31 244 40 46 168 0 11 170 104 113 255 255 255 252 248 254 161 69 92 160 64 73 149 50 51 165 70 65 176 112 87 217 182 154 180 0 14 248 27 33 234 27 39 239 26 33 235 28 32 246 23 28 234 38 44 134 0 2 226 217 218 253 255 255 255 255 255 255 255 255 255 255 255 255 255 255 255 255 255 255 255 255 255 255 255 255 255 255 
255 255 255 250 252 254 255 252 255 255 255 255 255 255 255 255 255 255 253 253 252 255 254 252 251 255 254 249 239 249 134 0 9 248 20 33 240 20 31 244 18 28 241 30 42 198 1 14 159 5 25 204 177 182 255 255 255 255 255 255 252 254 255 255 255 255 143 50 75 225 188 159 243 250 190 255 238 185 226 223 175 181 0 5 239 32 31 231 28 42 245 23 34 232 29 37 240 25 38 242 26 34 218 35 38 131 9 29 237 222 225 255 255 255 255 255 255 255 255 255 255 255 255 255 255 255 255 255 255 255 255 255 255 255 255 
255 255 255 255 254 255 255 255 255 255 255 255 254 255 255 255 255 255 255 255 255 255 253 254 253 254 255 255 255 255 200 152 167 155 74 84 155 78 94 155 80 97 151 79 89 204 179 181 171 124 141 197 184 184 234 230 232 251 254 255 255 255 255 255 255 255 148 48 38 250 250 188 242 226 177 236 233 177 229 214 176 173 0 9 241 30 38 233 29 33 240 24 38 235 27 35 236 27 37 235 27 36 240 26 34 235 32 41 125 8 25 183 138 149 248 255 255 255 255 255 254 255 253 255 255 255 255 255 255 255 255 255 255 255 255 
255 255 255 255 255 255 255 255 255 255 255 255 255 255 255 255 255 255 255 255 255 254 254 255 254 254 255 252 253 253 247 255 255 255 255 255 255 255 255 255 255 255 255 255 255 133 50 59 195 17 28 216 2 22 176 0 10 134 15 31 169 116 130 205 173 190 159 68 61 245 242 180 242 225 176 239 232 176 236 216 180 177 0 7 244 28 38 233 29 33 239 25 38 236 27 35 237 27 35 236 27 37 241 24 36 243 25 31 223 36 40 117 0 0 209 154 171 255 255 255 255 254 254 255 255 255 255 255 255 255 255 255 255 255 255 
255 255 255 255 255 255 255 255 255 255 255 255 255 255 255 255 255 255 255 255 255 254 255 254 252 254 253 255 251 255 255 254 255 247 254 255 200 161 172 133 13 32 158 9 23 231 29 40 236 52 61 169 21 31 223 41 46 255 28 34 237 15 31 143 0 0 211 167 141 240 237 178 239 226 176 244 235 180 196 166 131 204 10 31 247 24 36 233 29 33 239 25 38 236 27 35 237 26 35 236 27 36 235 28 37 237 26 36 247 24 33 187 49 55 103 0 12 252 240 245 255 255 255 255 255 255 255 255 255 255 255 255 255 255 255 
255 255 255 255 255 255 255 255 255 255 255 255 255 255 255 255 255 255 255 255 255 255 254 255 255 254 255 252 255 255 255 255 255 233 225 233 155 0 0 212 61 71 134 0 8 171 11 34 142 40 53 134 25 43 146 12 29 146 13 25 228 35 62 188 9 27 211 202 155 244 230 178 243 224 179 240 237 183 196 159 127 202 1 21 241 27 36 236 27 35 236 27 36 237 27 35 237 27 36 237 26 35 235 27 35 235 27 37 238 26 35 244 30 43 148 0 16 163 102 124 255 255 255 255 252 255 254 255 253 255 254 253 255 255 255 
255 255 255 255 255 255 255 255 255 255 255 255 255 255 255 255 255 255 255 255 255 255 255 255 255 255 255 255 255 255 255 255 255 193 159 165 204 17 39 131 16 34 196 156 177 169 129 132 165 28 39 239 36 53 238 27 42 193 55 66 113 11 17 141 0 26 222 190 156 245 232 176 235 228 178 244 243 189 168 105 88 227 23 40 238 26 35 237 26 36 237 27 35 237 27 36 237 27 36 237 27 36 237 26 35 237 26 35 237 26 35 238 28 30 228 45 54 116 0 0 220 208 210 255 255 255 254 254 255 255 254 255 255 255 255 
255 255 255 255 255 255 255 255 255 255 255 255 255 255 255 255 255 255 255 255 255 255 255 255 255 255 255 255 255 255 255 255 255 236 235 237 137 18 37 143 41 50 168 29 37 231 26 35 221 34 40 141 11 14 241 34 46 247 20 30 230 43 58 131 0 11 234 215 174 242 230 175 234 229 175 255 252 201 134 13 25 239 28 40 237 26 35 237 27 36 237 27 36 237 27 36 237 27 36 237 27 36 237 27 36 237 27 36 237 26 36 235 28 33 245 27 31 210 13 29 194 142 153 252 255 255 255 252 255 251 255 255 255 255 255 
255 255 255 255 255 255 255 255 255 255 255 255 255 255 255 255 255 255 255 255 255 255 255 255 255 255 255 255 255 255 255 255 255 249 255 255 115 0 7 244 41 54 255 18 27 208 21 26 139 59 73 193 148 164 158 12 29 217 42 36 248 22 33 149 26 30 248 251 193 241 226 174 243 236 183 194 151 124 191 17 35 239 26 35 237 26 35 237 27 36 237 27 36 237 27 36 237 27 36 237 27 36 237 27 36 236 27 35 237 26 36 238 25 40 239 26 28 222 24 40 124 12 33 255 255 255 254 251 255 250 254 255 255 255 255 
255 255 255 255 255 255 255 255 255 255 255 255 255 255 255 255 255 255 255 255 255 255 255 255 255 255 255 255 255 255 255 255 255 255 255 255 192 149 157 126 15 27 150 25 31 120 5 27 255 255 255 255 255 255 224 211 213 151 5 23 227 30 52 172 85 79 244 246 183 242 225 173 247 240 187 166 91 83 230 19 35 238 26 33 236 27 36 237 27 36 237 27 36 237 27 36 237 27 36 237 27 36 237 27 36 236 27 35 237 26 36 236 27 38 234 30 30 239 27 45 117 0 0 234 219 222 255 255 255 252 254 255 255 255 255 
255 255 255 255 255 255 255 255 255 255 255 255 255 255 255 255 255 255 255 255 255 255 255 255 255 255 255 255 255 255 255 255 255 253 255 255 255 255 255 255 255 255 255 255 255 255 255 255 255 255 255 107 0 21 232 225 230 253 255 255 156 69 83 163 76 68 245 245 184 242 226 173 244 244 184 174 93 82 233 16 30 239 26 33 236 26 36 237 27 35 236 27 35 237 27 35 236 26 36 236 27 36 236 26 36 237 27 36 237 26 35 233 28 36 237 27 34 247 28 38 159 0 14 180 128 138 255 255 255 255 254 255 255 255 255 
255 255 255 255 255 255 255 255 255 255 255 255 255 255 255 255 255 255 255 255 255 255 255 255 255 255 255 255 255 255 255 255 254 251 254 250 254 254 252 251 255 255 255 255 255 216 204 203 141 21 33 214 44 57 147 21 34 198 166 176 213 188 192 190 114 104 242 239 178 240 226 174 238 246 183 173 95 82 231 17 30 235 29 31 238 26 36 237 26 36 240 25 37 238 26 36 247 27 33 255 27 32 252 27 32 242 26 34 237 26 38 243 24 35 239 25 37 242 29 33 170 4 15 176 96 111 255 255 255 254 253 254 255 255 255 
255 255 255 255 255 255 255 255 255 255 255 255 255 255 255 255 255 255 255 255 255 255 255 255 255 255 255 255 255 255 255 255 254 252 254 253 255 255 255 217 179 193 143 36 50 178 2 23 187 22 33 160 0 0 214 32 41 214 7 26 153 12 28 204 156 134 242 238 178 239 227 176 246 242 186 171 95 84 234 15 32 240 26 32 235 28 33 227 32 32 248 27 29 247 37 43 157 21 30 88 0 9 113 8 17 201 30 38 255 31 35 235 29 31 227 32 32 245 25 33 206 29 40 123 15 35 255 255 255 255 255 252 255 255 255 
255 255 255 255 255 255 255 255 255 255 255 255 255 255 255 255 255 255 255 255 255 255 255 255 255 255 255 255 255 255 255 255 255 253 254 254 255 255 255 163 113 118 140 12 25 169 7 28 172 111 117 246 249 255 164 92 103 141 15 23 142 16 31 255 250 205 234 231 174 242 225 174 246 242 186 170 96 84 233 16 32 239 27 35 236 28 30 255 22 36 180 32 45 0 0 0 33 56 50 139 141 148 102 114 114 0 2 0 60 0 5 250 33 48 250 22 30 236 29 33 228 24 40 123 0 17 255 255 255 252 255 255 255 255 255 
255 255 255 255 255 255 255 255 255 255 255 255 255 255 255 255 255 255 255 255 255 255 255 255 255 255 255 255 255 255 254 255 254 253 254 252 253 250 255 255 255 255 238 231 235 221 202 207 255 255 255 248 255 252 255 255 255 241 237 244 149 64 54 252 240 187 238 226 176 241 226 173 247 242 185 171 95 84 234 15 32 237 28 32 247 25 30 205 33 49 0 0 0 208 213 215 255 255 255 255 255 255 255 255 255 255 255 255 61 71 73 65 4 6 255 28 45 236 28 29 238 33 44 119 0 0 210 191 200 255 255 255 255 255 255 
255 255 255 255 255 255 255 255 255 255 255 255 255 255 255 255 255 255 255 255 255 255 255 255 255 255 255 255 255 255 255 255 255 255 255 255 255 255 255 255 255 255 255 255 255 255 255 255 255 255 255 255 253 252 255 255 255 175 98 116 225 191 151 240 232 180 238 227 177 238 227 177 247 242 185 170 96 84 233 16 32 237 28 35 255 29 29 71 3 8 111 125 123 255 255 255 253 253 253 255 255 255 255 255 255 254 254 254 255 255 255 0 0 0 220 29 43 237 31 26 247 27 45 125 0 0 190 139 150 255 255 255 255 255 255 
255 255 255 255 255 255 255 255 255 255 255 255 255 255 255 255 255 255 255 255 255 255 255 255 255 255 255 255 255 255 255 255 255 255 255 255 255 255 255 255 255 255 255 255 255 255 255 255 255 255 255 251 255 255 255 255 255 119 27 38 253 248 194 238 227 176 238 227 177 239 227 176 247 242 185 171 95 84 233 15 31 244 23 38 238 39 46 0 0 0 233 241 241 255 255 255 255 255 255 17 17 17 99 99 99 255 255 255 255 255 255 75 94 93 121 13 18 254 24 39 246 28 40 151 15 21 129 0 23 255 255 255 255 255 255 
255 255 255 255 255 255 255 255 255 255 255 255 255 255 255 255 255 255 255 255 255 255 255 255 255 255 255 255 255 255 255 255 255 255 255 255 255 255 255 255 255 255 255 255 255 255 255 255 255 255 255 255 254 255 255 253 253 151 73 65 248 241 184 238 226 177 238 227 176 239 226 177 247 242 186 170 96 84 233 16 32 235 29 32 253 32 46 0 0 0 234 237 234 255 255 255 210 210 209 0 0 0 172 172 172 255 255 255 255 255 255 69 94 84 135 12 22 246 29 34 241 29 33 202 26 40 131 32 46 193 150 159 255 255 255 
255 255 255 255 255 255 255 255 255 255 255 255 255 255 255 255 255 255 255 255 255 255 255 255 255 255 255 255 255 255 255 255 255 255 255 255 255 255 255 255 255 255 255 255 255 255 255 255 255 255 255 255 255 255 255 254 255 154 71 59 248 243 183 239 228 170 255 240 193 238 229 168 247 242 185 171 95 84 233 15 32 240 27 31 255 25 37 56 2 2 121 132 137 255 255 255 255 255 255 255 255 255 255 255 255 253 253 253 255 255 255 0 0 0 215 32 44 245 24 34 233 30 34 230 28 45 127 0 5 201 153 160 255 255 255 
255 255 255 255 255 255 255 255 255 255 255 255 255 255 255 255 255 255 255 255 255 255 255 255 255 255 255 255 255 255 255 255 255 255 255 255 255 255 255 255 255 255 255 255 255 255 255 255 255 255 255 255 255 255 255 253 255 154 70 59 248 243 183 253 242 195 85 76 60 253 240 189 247 242 185 170 96 84 234 16 32 234 29 33 239 29 33 229 27 52 0 0 0 190 193 197 255 255 255 255 255 255 255 255 255 255 255 255 35 59 54 86 4 11 255 27 45 239 27 33 233 28 33 245 28 44 160 5 18 179 121 132 255 255 255 
255 255 255 255 255 255 255 255 255 255 255 255 255 255 255 255 255 255 255 255 255 255 255 255 255 255 255 255 255 255 255 255 255 255 255 255 255 255 255 255 255 255 255 255 255 255 255 255 255 255 255 255 255 255 255 253 255 154 71 59 249 242 182 253 244 197 52 53 48 255 244 190 247 242 184 170 95 84 234 15 31 233 30 35 238 27 32 254 23 34 187 37 40 0 0 0 23 39 38 115 132 126 87 103 100 0 0 0 82 5 8 243 36 46 244 24 30 238 27 32 235 28 35 250 26 36 161 0 8 183 123 137 255 255 255 
255 255 255 255 255 255 255 255 255 255 255 255 255 255 255 255 255 255 255 255 255 255 255 255 255 255 255 255 255 255 255 255 255 255 255 255 255 255 255 255 255 255 255 255 255 255 255 255 255 255 255 255 253 255 253 255 255 154 54 58 244 244 188 255 246 184 58 53 52 255 244 187 244 242 190 174 94 84 236 15 36 235 28 31 238 26 35 234 28 32 253 21 33 249 33 49 155 22 27 104 9 8 115 10 12 205 33 44 255 25 41 241 25 33 235 28 34 237 27 35 236 27 36 241 27 35 206 7 19 178 122 137 255 255 255 
255 255 255 255 255 255 255 255 255 255 255 255 255 255 255 255 255 255 255 255 255 255 255 255 255 255 255 255 255 255 255 255 255 255 255 255 255 255 255 255 255 255 255 255 255 255 255 255 255 255 255 253 254 255 255 255 255 144 46 52 250 241 190 255 247 182 62 53 53 255 244 189 244 242 187 161 94 78 229 25 47 238 26 31 236 26 36 237 26 36 231 29 34 240 25 34 255 20 41 255 24 48 255 22 46 252 20 38 231 30 33 236 27 36 237 26 36 237 26 36 236 27 35 241 27 37 207 5 14 175 127 139 255 255 255 
255 255 255 255 255 255 255 255 255 255 255 255 255 255 255 255 255 255 255 255 255 255 255 255 255 255 255 255 255 255 255 255 255 255 255 255 255 255 255 255 255 255 255 255 255 255 255 255 255 255 255 254 255 255 240 228 230 149 66 61 247 242 186 255 246 182 61 52 51 255 244 188 239 236 175 219 186 161 183 9 23 247 25 34 236 27 36 236 27 36 238 26 36 239 26 36 232 29 35 228 31 36 228 31 35 235 27 35 240 25 36 237 27 36 236 27 36 237 26 36 236 27 35 244 26 37 192 2 8 211 186 193 255 255 255 
255 255 255 255 255 255 255 255 255 255 255 255 255 255 255 255 255 255 255 255 255 255 255 255 255 255 255 255 255 255 255 255 255 255 255 255 255 255 255 255 255 255 255 255 255 255 255 255 255 255 255 255 255 255 213 184 193 194 129 111 242 240 181 255 244 186 56 49 42 252 241 190 241 233 172 231 211 176 166 0 10 247 26 35 236 27 36 237 27 36 236 27 36 236 27 35 237 26 34 240 26 34 239 26 34 236 26 34 236 27 36 236 27 36 237 27 36 237 26 36 235 28 35 240 27 37 196 1 12 205 187 193 255 255 255 
255 255 255 255 255 255 255 255 255 255 255 255 255 255 255 255 255 255 255 255 255 255 255 255 255 255 255 255 255 255 255 255 255 255 255 255 255 255 255 255 255 255 255 255 255 255 255 255 255 255 255 255 255 255 215 188 200 191 130 102 245 237 178 255 242 191 64 60 45 249 240 194 242 232 173 227 209 169 171 0 8 245 28 36 236 27 36 237 27 36 237 27 36 237 27 36 236 27 36 236 27 36 236 27 36 237 27 36 237 27 36 237 27 36 237 27 36 237 26 36 236 27 35 236 30 38 204 0 13 205 187 194 255 255 255 
255 255 255 255 255 255 255 255 255 255 255 255 255 255 255 255 255 255 255 255 255 255 255 255 255 255 255 255 255 255 255 255 255 255 255 255 255 255 255 255 255 255 255 255 255 255 255 255 255 255 255 255 255 255 215 188 200 191 130 102 244 237 179 255 242 190 64 59 45 249 240 193 242 232 173 227 209 170 171 0 8 245 27 36 236 27 35 236 27 35 236 27 35 236 27 35 237 26 36 237 26 36 237 26 36 237 26 36 237 26 36 236 27 36 236 27 36 237 26 36 236 27 35 236 30 38 202 0 12 205 188 195 255 255 255 
255 255 255 255 255 255 255 255 255 255 255 255 255 255 255 255 255 255 255 255 255 255 255 255 255 255 255 255 255 255 255 255 255 255 255 255 255 255 255 255 255 255 255 255 255 255 255 255 255 255 255 255 255 255 217 189 199 192 128 104 246 236 178 255 242 190 64 59 45 249 240 194 243 231 174 228 209 170 172 0 10 242 29 35 238 25 37 237 26 38 238 25 37 238 26 37 235 27 35 232 30 33 237 27 35 233 29 33 234 29 33 238 26 35 237 27 36 236 26 36 236 27 34 238 28 38 207 11 21 196 168 174 255 255 255 
255 255 255 255 255 255 255 255 255 255 255 255 255 255 255 255 255 255 255 255 255 255 255 255 255 255 255 255 255 255 255 255 255 255 255 255 255 255 255 255 255 255 255 255 255 255 255 255 255 255 255 255 255 255 215 172 178 187 130 110 244 238 179 255 242 190 64 59 45 249 241 193 242 231 176 227 209 173 172 0 13 244 28 36 236 27 35 230 30 35 236 30 29 249 29 33 255 27 44 252 33 42 255 28 37 250 26 36 241 25 38 240 25 36 238 26 35 238 26 36 235 28 33 241 25 37 217 23 28 177 119 128 255 255 255 
255 255 255 255 255 255 255 255 255 255 255 255 255 255 255 255 255 255 255 255 255 255 255 255 255 255 255 255 255 255 255 255 255 255 255 255 255 255 255 255 255 255 255 255 255 255 255 255 255 255 255 255 255 255 141 59 74 255 231 191 235 231 173 255 242 190 64 59 45 249 240 193 238 234 176 234 213 179 168 0 11 243 27 39 235 29 31 255 19 30 245 30 47 117 11 17 0 0 0 0 0 0 23 0 0 119 14 22 250 36 38 238 29 36 235 28 36 239 26 36 234 29 33 244 23 37 228 13 24 186 120 132 255 255 255 
255 255 255 255 255 255 255 255 255 255 255 255 255 255 255 255 255 255 255 255 255 255 255 255 255 255 255 255 255 255 255 255 255 255 255 255 254 255 255 254 255 255 255 255 255 255 255 255 255 255 255 255 255 255 155 59 74 247 230 179 242 228 173 255 242 190 55 49 38 249 240 193 248 237 182 183 138 112 192 11 30 243 25 38 242 27 31 222 32 44 0 0 0 64 80 81 216 221 222 247 255 247 208 215 211 48 68 68 2 0 0 237 36 40 236 26 34 239 26 36 235 28 33 241 25 37 220 16 24 181 120 131 255 255 255 
255 255 255 255 255 255 255 255 255 255 255 255 255 255 255 255 255 255 255 255 255 255 255 255 255 255 255 255 255 255 255 254 255 253 254 253 251 254 255 253 251 255 255 252 255 255 253 255 255 254 255 255 255 255 180 123 130 218 180 143 243 234 174 245 233 185 170 154 127 245 233 180 247 242 185 169 91 81 236 16 32 239 27 32 248 35 34 41 0 0 113 129 127 255 255 255 255 255 255 255 255 255 255 255 255 255 255 255 89 103 102 51 0 2 255 24 42 226 33 31 239 26 34 241 25 37 221 16 24 184 120 131 255 255 255 
255 255 255 255 255 255 255 255 255 255 255 255 255 255 255 255 255 255 255 255 255 255 255 255 255 255 255 255 255 255 254 255 255 250 255 255 255 252 254 251 255 255 252 255 255 249 255 254 253 255 255 255 255 255 124 49 62 249 228 189 243 229 172 238 228 170 245 234 183 238 228 168 247 242 185 170 96 84 234 16 32 237 29 35 218 20 38 0 15 8 255 255 255 254 254 253 255 255 255 179 179 179 253 253 253 254 254 254 255 255 255 0 0 0 223 34 50 235 30 33 241 25 33 241 26 37 221 16 24 184 120 131 255 255 255 
255 255 255 255 255 255 255 255 255 255 255 255 255 255 255 255 255 255 255 255 255 255 255 255 255 255 255 255 255 255 255 255 255 255 255 255 255 255 255 222 203 208 235 218 228 255 255 255 255 255 255 255 255 255 201 145 162 188 136 109 244 237 182 238 226 175 239 228 173 239 226 175 247 242 185 171 95 84 234 15 32 246 29 29 164 15 26 57 69 70 255 255 255 255 255 255 233 234 233 0 0 0 127 127 127 255 255 255 255 255 255 27 47 45 187 17 31 241 28 37 241 25 34 241 25 37 221 16 24 184 120 131 255 255 255 
255 255 255 255 255 255 255 255 255 255 255 255 255 255 255 255 255 255 255 255 255 255 255 255 255 255 255 255 255 255 255 255 255 255 255 255 133 45 62 164 20 35 147 8 19 208 168 179 217 220 217 156 67 82 153 17 32 162 64 66 247 249 193 239 226 177 238 226 177 239 226 176 247 242 185 170 96 84 233 16 32 247 28 29 184 28 32 0 14 19 255 255 255 255 255 255 255 255 255 85 84 84 224 225 220 255 255 253 255 255 255 0 0 0 227 30 43 235 30 32 241 25 34 241 26 37 221 16 24 184 120 131 255 255 255 
255 255 255 255 255 255 255 255 255 255 255 255 255 255 255 255 255 255 255 255 255 255 255 255 255 255 255 255 255 255 255 255 255 255 255 255 191 154 159 147 14 36 193 11 28 182 11 24 171 0 7 232 28 46 207 4 13 138 9 21 236 211 167 240 230 179 238 227 177 239 227 176 247 242 185 171 95 84 234 15 31 237 26 38 255 28 42 10 0 0 145 157 163 255 255 255 255 255 255 255 255 255 255 255 255 255 255 255 98 113 115 49 0 0 252 29 45 241 25 32 238 26 34 241 25 37 221 16 24 184 120 131 255 255 255 
255 255 255 255 255 255 255 255 255 255 255 255 255 255 255 255 255 255 255 255 255 255 255 255 255 255 255 255 255 255 255 255 255 252 254 255 252 255 255 255 255 255 187 159 164 141 18 29 210 36 54 140 57 65 214 182 192 184 133 157 217 180 147 241 233 180 238 227 177 239 226 176 247 242 185 170 96 84 233 16 32 237 28 29 229 32 40 221 37 37 0 0 0 86 94 95 225 234 233 255 255 255 226 223 228 58 81 80 6 0 0 229 35 45 243 26 33 243 24 35 234 28 34 242 25 37 221 16 24 184 120 131 255 255 255 
255 255 255 255 255 255 255 255 255 255 255 255 255 255 255 255 255 255 255 255 255 254 255 255 255 253 255 250 253 253 250 255 254 255 255 255 255 255 255 255 255 255 255 255 255 242 229 228 99 0 14 255 255 255 230 210 222 136 33 45 196 142 112 244 237 184 238 227 177 239 227 176 247 242 185 171 95 84 234 15 32 237 29 29 240 24 40 248 26 31 229 36 50 102 10 13 0 0 0 0 0 0 0 0 0 114 10 19 244 33 52 248 23 35 236 29 35 237 26 35 235 28 34 239 26 37 222 15 22 178 122 130 255 255 255 
255 255 255 255 255 255 255 255 255 255 255 255 255 255 255 255 255 255 255 255 255 254 255 255 255 253 255 253 255 254 255 255 255 162 91 106 150 11 32 155 14 35 131 29 54 255 255 255 255 255 255 186 164 163 164 2 24 205 15 34 195 150 125 243 237 183 239 227 177 239 226 176 247 242 185 170 96 84 233 16 32 236 28 33 236 27 35 236 27 36 245 24 31 255 29 35 251 32 43 251 34 49 251 33 43 254 26 34 237 30 24 236 27 36 237 26 36 236 27 36 242 24 33 232 30 38 230 13 27 183 115 128 255 255 255 
255 255 255 255 255 255 255 255 255 255 255 255 255 255 255 255 255 255 255 255 255 255 255 255 255 253 255 255 255 255 211 200 210 146 0 8 241 39 46 255 22 26 181 8 12 158 107 116 171 104 120 176 22 34 249 29 37 231 18 30 164 79 76 247 245 189 238 226 176 239 226 176 246 242 186 171 95 84 234 15 32 236 28 33 237 26 36 237 26 35 234 28 38 240 24 39 243 23 37 235 29 35 246 22 35 238 25 38 231 29 41 236 27 36 237 26 35 236 27 36 239 26 32 241 27 40 188 2 11 197 162 171 255 255 255 
255 255 255 255 255 255 255 255 255 255 255 255 255 255 255 255 255 255 255 255 255 255 254 255 253 253 255 250 255 255 230 200 205 127 0 10 160 55 64 178 21 37 228 32 34 219 25 45 152 19 24 251 23 37 238 34 28 217 43 51 126 5 18 248 249 194 242 226 175 237 227 176 248 241 183 169 95 87 233 17 27 238 27 35 236 26 36 237 26 36 236 27 33 233 29 32 235 28 33 238 26 34 232 30 35 235 28 33 242 25 33 237 27 36 236 27 36 237 26 36 231 29 32 251 24 42 140 9 16 255 255 255 255 255 255 
255 255 255 255 255 255 255 255 255 255 255 255 255 255 255 255 255 255 255 255 255 255 253 255 248 254 255 255 255 255 162 89 99 204 38 57 131 33 48 200 182 190 170 88 103 176 26 38 247 36 42 242 21 37 172 57 72 115 3 15 122 0 16 253 250 199 243 224 171 235 229 176 244 244 181 167 94 92 227 20 22 239 26 38 236 27 35 237 27 36 237 26 36 237 26 36 237 26 36 236 26 36 237 26 36 237 26 36 236 27 36 236 27 36 237 27 36 237 26 36 236 28 31 221 24 36 162 111 115 255 255 255 255 255 255 
255 255 255 255 255 255 255 255 255 255 255 255 255 255 255 255 255 255 255 255 255 255 254 254 249 255 254 255 255 255 192 155 165 193 0 6 186 44 50 149 0 7 164 29 39 137 41 58 129 15 42 128 14 29 168 17 23 247 46 64 153 0 3 255 249 202 241 227 172 237 228 176 243 246 181 170 92 92 229 21 22 237 26 38 237 26 35 237 27 36 237 27 36 237 27 36 237 27 36 237 27 36 237 27 36 237 27 36 237 27 36 236 27 35 236 27 36 237 26 35 247 27 41 152 0 12 219 206 212 255 255 255 255 255 255 
255 255 255 255 255 255 255 255 255 255 255 255 255 255 255 255 255 255 255 255 255 255 255 254 252 255 254 252 255 255 240 238 241 181 130 138 130 17 38 154 11 21 235 36 44 235 44 61 162 26 24 255 32 49 248 26 35 214 16 27 122 0 0 246 222 181 238 231 174 239 227 176 251 245 187 155 54 57 248 26 35 237 25 36 236 27 35 237 27 36 237 27 36 237 27 36 237 27 36 237 27 36 237 27 36 237 27 36 236 27 35 238 26 37 241 25 34 241 25 33 198 32 46 149 76 90 255 255 255 249 255 254 255 255 255 
255 255 255 255 255 255 255 255 255 255 255 255 255 255 255 255 255 255 255 255 255 255 255 255 255 255 255 255 255 255 255 255 255 255 255 255 255 255 255 232 218 221 131 19 36 208 4 18 202 5 12 158 0 4 141 39 53 182 144 154 181 129 143 190 129 104 237 240 180 242 225 176 246 247 197 158 43 40 245 22 38 235 28 33 237 26 36 237 27 36 237 27 36 237 27 36 237 27 36 237 27 36 237 27 36 237 26 36 236 27 36 231 29 34 245 22 29 240 36 43 130 0 6 255 252 255 253 255 255 255 255 253 255 255 255 
255 255 255 255 255 255 255 255 255 255 255 255 255 255 255 255 255 255 255 255 255 255 255 255 255 255 255 255 255 255 255 255 255 254 253 255 251 252 254 255 255 255 238 228 234 202 164 172 210 184 187 237 231 238 255 255 255 255 255 255 201 175 176 210 148 125 240 238 179 241 226 175 253 245 191 148 34 31 245 24 43 235 27 34 237 26 36 237 27 36 237 27 36 237 27 36 237 27 36 237 27 36 237 27 36 236 26 36 236 27 36 241 26 30 243 39 49 170 6 22 198 158 161 253 255 255 252 255 255 253 255 254 255 255 255 
255 255 255 254 255 255 255 255 255 255 255 255 255 255 255 255 255 255 255 255 255 255 255 255 255 255 255 255 255 255 255 255 255 255 255 255 255 255 255 255 255 255 255 255 255 255 255 255 255 255 255 255 255 255 252 255 255 255 255 255 203 165 174 167 92 71 245 240 183 240 227 177 236 236 176 220 193 162 183 1 10 240 28 37 237 26 35 237 27 36 237 27 36 237 27 36 237 27 36 237 26 35 236 26 35 237 27 35 237 26 35 244 29 42 163 9 20 179 143 154 255 255 255 246 255 251 255 251 255 253 255 255 255 255 255 
255 255 255 251 254 253 252 255 255 253 254 255 254 255 253 255 255 255 255 255 255 252 255 254 251 255 255 228 212 218 179 131 139 182 142 147 184 138 149 177 130 143 242 237 241 255 255 255 255 255 255 252 252 253 254 254 255 253 254 255 255 255 255 150 59 57 244 249 187 237 228 176 241 231 177 233 209 174 176 0 9 243 28 36 236 26 36 237 27 36 237 27 36 237 27 36 237 26 35 236 26 36 228 31 39 241 25 38 245 26 37 179 6 19 181 148 154 255 255 255 254 255 253 255 255 255 255 255 255 255 255 255 255 255 255 
255 255 255 255 254 255 255 255 255 255 255 255 255 255 255 255 255 255 255 255 255 251 255 255 255 255 255 129 0 0 222 12 29 222 8 19 220 9 21 217 23 33 164 0 4 123 0 15 223 203 211 255 255 255 255 255 255 250 251 252 255 255 255 135 35 56 242 211 174 254 239 176 242 240 173 227 215 168 177 0 10 244 28 37 236 27 36 237 27 36 237 27 36 237 27 36 236 26 36 238 26 35 235 28 33 243 25 34 225 28 29 135 48 65 255 255 255 248 255 255 255 254 254 255 255 255 255 255 255 255 255 255 255 255 255 
255 255 255 229 224 220 127 2 21 131 24 39 255 255 255 255 255 255 255 255 255 255 255 255 187 153 163 208 23 35 241 27 34 236 29 31 241 26 33 237 27 37 247 26 32 245 40 55 151 9 21 194 147 154 255 255 255 255 255 255 194 133 145 148 33 42 133 46 45 190 139 115 213 166 141 231 207 178 178 0 8 244 28 34 236 27 35 237 27 35 237 26 36 237 26 35 237 26 35 241 23 32 239 31 39 183 19 40 134 58 70 242 238 244 254 255 255 255 252 255 254 254 255 255 255 255 255 255 255 255 255 255 255 255 255 
255 255 255 249 252 255 168 0 0 227 46 54 128 18 40 250 255 255 253 254 255 255 255 255 220 200 209 124 0 13 211 27 36 239 25 32 241 25 39 233 28 37 243 24 40 224 32 34 190 16 29 128 0 15 138 36 54 132 44 49 190 135 116 254 255 201 255 234 190 188 131 100 197 140 119 104 1 10 182 17 36 241 28 37 238 26 39 237 26 36 231 29 33 236 28 37 245 25 39 216 44 52 130 12 27 201 171 174 255 255 255 255 255 255 254 255 254 254 255 254 254 255 255 255 255 255 255 255 255 255 255 255 255 255 255 
255 255 255 247 251 255 172 0 1 253 23 26 222 43 55 163 94 111 255 255 255 250 253 248 253 255 255 255 255 255 153 64 78 222 56 66 236 24 37 240 25 35 234 29 34 240 30 35 204 18 33 148 66 58 250 241 193 249 244 191 247 235 181 238 227 176 238 228 177 244 237 185 249 240 184 240 222 183 144 21 27 246 25 37 234 28 31 238 25 33 247 20 33 238 27 40 154 12 29 146 81 95 255 255 255 254 255 255 248 254 251 255 255 255 255 255 255 255 255 255 255 255 255 255 255 255 255 255 255 255 255 255 255 255 255 
255 255 255 246 254 255 160 0 7 244 28 33 232 25 28 221 44 53 220 176 180 255 255 255 255 255 255 255 255 255 206 175 184 110 0 0 240 30 44 238 26 34 242 25 33 242 28 41 179 11 27 208 159 134 235 242 180 239 227 172 241 226 174 239 226 177 238 227 177 237 228 177 235 234 168 248 253 194 168 77 82 227 26 41 253 24 34 243 34 49 184 60 74 114 0 6 168 106 121 255 255 255 254 255 255 255 254 255 255 253 255 255 254 255 255 255 255 255 255 255 255 255 255 255 255 255 255 255 255 255 255 255 255 255 255 
255 255 255 248 253 255 159 0 5 241 29 37 241 24 39 245 20 32 196 9 17 200 83 95 207 185 193 255 255 255 238 232 232 148 69 84 238 24 41 245 31 31 251 26 36 214 19 40 118 36 37 246 239 184 237 230 174 244 223 177 233 229 175 233 229 169 247 231 177 250 244 188 248 240 186 157 59 64 156 82 97 145 42 53 146 0 11 118 0 4 195 150 160 251 252 255 255 255 255 252 255 253 255 255 253 254 255 254 252 255 255 255 255 255 255 255 255 255 255 255 255 255 255 255 255 255 255 255 255 255 255 255 255 255 255 
255 255 255 240 233 235 172 0 10 240 29 33 237 26 38 235 27 39 237 27 38 236 21 32 182 25 37 138 63 77 231 224 219 175 128 142 154 0 10 158 11 21 159 13 18 150 0 7 217 171 162 247 240 180 241 227 168 236 229 171 247 234 181 255 245 192 212 184 150 160 59 63 110 0 5 223 206 211 255 255 255 255 255 255 255 255 255 255 255 255 255 255 255 255 255 255 255 255 255 255 255 255 255 255 255 255 255 255 255 255 255 255 255 255 255 255 255 255 255 255 255 255 255 255 255 255 255 255 255 255 255 255 255 255 255 
255 255 255 168 123 129 222 23 40 240 26 30 237 26 39 235 27 36 238 26 37 240 25 35 244 24 31 245 22 43 212 4 27 206 14 18 223 23 31 230 35 45 238 30 54 236 35 48 138 24 30 246 223 190 249 246 190 250 249 192 200 145 126 141 33 49 157 68 87 251 255 255 255 255 255 255 255 255 254 252 255 251 254 255 251 255 255 252 254 255 254 254 255 255 255 255 255 255 255 255 255 255 255 255 255 255 255 255 255 255 255 255 255 255 255 255 255 255 255 255 255 255 255 255 255 255 255 255 255 255 255 255 255 255 255 
255 255 255 177 122 132 225 9 24 240 26 30 235 26 41 239 25 37 233 28 35 233 28 34 238 26 35 234 29 33 242 25 34 242 27 37 231 32 36 239 27 32 240 22 38 240 27 27 235 29 51 138 41 43 150 68 62 167 73 73 125 37 53 255 255 255 255 255 255 254 254 255 254 252 255 253 254 255 251 255 255 253 253 254 255 253 253 253 253 253 254 254 254 255 255 255 255 255 255 255 255 255 255 255 255 255 255 255 255 255 255 255 255 255 255 255 255 255 255 255 255 255 255 255 255 255 255 255 255 255 255 255 255 255 255 
255 255 255 179 140 149 203 42 54 243 22 27 235 26 35 229 31 34 236 27 35 240 25 36 236 27 36 237 26 36 236 26 35 235 27 38 236 26 35 237 27 32 232 29 33 239 28 26 241 29 39 165 11 32 185 115 133 244 252 250 255 255 255 255 255 255 255 255 255 255 255 255 255 255 255 255 255 255 255 255 255 255 255 255 255 255 255 255 255 255 255 255 255 255 255 255 255 255 255 255 255 255 255 255 255 255 255 255 255 255 255 255 255 255 255 255 255 255 255 255 255 255 255 255 255 255 255 255 255 255 255 255 255 255 255 
255 255 255 255 255 255 154 85 94 171 39 48 245 30 44 248 20 32 244 22 34 232 30 35 237 26 36 236 26 36 236 26 36 232 30 33 242 25 35 236 25 34 246 24 38 241 22 32 158 0 9 200 176 179 255 255 255 252 255 255 251 252 255 255 255 255 255 255 255 255 255 255 255 255 255 255 255 255 255 255 255 255 255 255 255 255 255 255 255 255 255 255 255 255 255 255 255 255 255 255 255 255 255 255 255 255 255 255 255 255 255 255 255 255 255 255 255 255 255 255 255 255 255 255 255 255 255 255 255 255 255 255 255 255 255 
255 255 255 248 255 254 255 255 255 211 184 193 134 28 41 185 35 48 238 39 51 244 26 32 246 28 36 246 28 36 246 28 36 242 31 28 244 24 31 229 42 47 143 24 38 164 74 84 166 113 123 255 255 255 252 253 254 254 254 252 252 252 251 255 255 255 255 255 255 255 255 255 255 255 255 255 255 255 255 255 255 255 255 255 255 255 255 255 255 255 255 255 255 255 255 255 255 255 255 255 255 255 255 255 255 255 255 255 255 255 255 255 255 255 255 255 255 255 255 255 255 255 255 255 255 255 255 255 255 255 255 255 255 255 255 
255 255 255 255 255 255 255 255 255 255 255 255 255 255 255 214 199 201 129 38 46 157 0 1 154 0 6 154 0 6 155 0 6 151 0 0 141 5 20 156 89 101 254 247 255 255 255 255 255 255 255 255 254 255 255 255 255 255 255 255 255 255 255 255 255 255 255 255 255 255 255 255 255 255 255 255 255 255 255 255 255 255 255 255 255 255 255 255 255 255 255 255 255 255 255 255 255 255 255 255 255 255 255 255 255 255 255 255 255 255 255 255 255 255 255 255 255 255 255 255 255 255 255 255 255 255 255 255 255 255 255 255 255 255 255 
255 255 255 255 255 255 254 254 254 254 254 254 253 252 254 255 255 255 255 255 255 255 255 255 255 255 255 255 255 255 255 255 255 255 255 255 255 255 255 255 255 255 253 255 255 249 255 254 253 254 255 255 254 255 255 255 255 255 255 255 255 255 255 255 255 255 255 255 255 255 255 255 255 255 255 255 255 255 255 255 255 255 255 255 255 255 255 255 255 255 255 255 255 255 255 255 255 255 255 255 255 255 255 255 255 255 255 255 255 255 255 255 255 255 255 255 255 255 255 255 255 255 255 255 255 255 255 255 255 255 255 255 255 255 255 
