P3
45 74
255
255 255 255 255 255 255 255 255 255 255 255 255 255 255 255 255 255 255 255 255 255 255 255 255 255 255 255 255 255 255 255 255 255 255 255 255 255 255 255 255 255 255 255 255 255 255 255 255 255 255 255 255 255 255 255 255 255 255 255 255 255 255 255 255 255 255 255 255 255 255 255 255 255 255 255 255 255 255 255 255 255 255 254 255 253 254 255 249 255 254 253 255 255 255 255 255 255 255 255 255 255 255 255 255 255 255 255 255 255 255 255 255 255 255 255 255 255 255 255 255 253 252 254 254 254 254 254 254 254 255 255 255 255 255 255 
255 255 255 255 255 255 255 255 255 255 255 255 255 255 255 255 255 255 255 255 255 255 255 255 255 255 255 255 255 255 255 255 255 255 255 255 255 255 255 255 255 255 255 255 255 255 255 255 255 255 255 255 255 255 255 255 255 255 255 255 255 255 255 255 255 255 255 255 255 255 255 255 255 255 255 255 255 255 255 255 255 255 254 255 255 255 255 255 255 255 254 247 255 156 89 101 141 5 20 151 0 0 155 0 6 154 0 6 154 0 6 157 0 1 129 38 46 214 199 201 255 255 255 255 255 255 255 255 255 255 255 255 255 255 255 
255 255 255 255 255 255 255 255 255 255 255 255 255 255 255 255 255 255 255 255 255 255 255 255 255 255 255 255 255 255 255 255 255 255 255 255 255 255 255 255 255 255 255 255 255 255 255 255 255 255 255 255 255 255 255 255 255 255 255 255 255 255 255 255 255 255 255 255 255 255 255 255 252 252 251 254 254 252 252 253 254 255 255 255 166 113 123 164 74 84 143 24 38 229 42 47 244 24 31 242 31 28 246 28 36 246 28 36 246 28 36 244 26 32 238 39 51 185 35 48 134 28 41 211 184 193 255 255 255 248 255 254 255 255 255 
255 255 255 255 255 255 255 255 255 255 255 255 255 255 255 255 255 255 255 255 255 255 255 255 255 255 255 255 255 255 255 255 255 255 255 255 255 255 255 255 255 255 255 255 255 255 255 255 255 255 255 255 255 255 255 255 255 255 255 255 255 255 255 255 255 255 255 255 255 255 255 255 251 252 255 252 255 255 255 255 255 200 176 179 158 0 9 241 22 32 246 24 38 236 25 34 242 25 35 232 30 33 236 26 36 236 26 36 237 26 36 232 30 35 244 22 34 248 20 32 245 30 44 171 39 48 154 85 94 255 255 255 255 255 255 
255 255 255 255 255 255 255 255 255 255 255 255 255 255 255 255 255 255 255 255 255 255 255 255 255 255 255 255 255 255 255 255 255 255 255 255 255 255 255 255 255 255 255 255 255 255 255 255 255 255 255 255 255 255 255 255 255 255 255 255 255 255 255 255 255 255 255 255 255 255 255 255 255 255 255 244 252 250 185 115 133 165 11 32 241 29 39 239 28 26 232 29 33 237 27 32 236 26 35 235 27 38 236 26 35 237 26 36 236 27 36 240 25 36 236 27 35 229 31 34 235 26 35 243 22 27 203 42 54 179 140 149 255 255 255 
255 255 255 255 255 255 255 255 255 255 255 255 255 255 255 255 255 255 255 255 255 255 255 255 255 255 255 255 255 255 255 255 255 255 255 255 255 255 255 255 255 255 254 254 254 253 253 253 255 253 253 253 253 254 251 255 255 253 254 255 254 252 255 254 254 255 255 255 255 255 255 255 125 37 53 167 73 73 150 68 62 138 41 43 235 29 51 240 27 27 240 22 38 239 27 32 231 32 36 242 27 37 242 25 34 234 29 33 238 26 35 233 28 34 233 28 35 239 25 37 235 26 41 240 26 30 225 9 24 177 122 132 255 255 255 
255 255 255 255 255 255 255 255 255 255 255 255 255 255 255 255 255 255 255 255 255 255 255 255 255 255 255 255 255 255 255 255 255 255 255 255 255 255 255 255 255 255 254 254 255 252 254 255 251 255 255 251 254 255 254 252 255 255 255 255 255 255 255 251 255 255 157 68 87 141 33 49 200 145 126 250 249 192 249 246 190 246 223 190 138 24 30 236 35 48 238 30 54 230 35 45 223 23 31 206 14 18 212 4 27 245 22 43 244 24 31 240 25 35 238 26 37 235 27 36 237 26 39 240 26 30 222 23 40 168 123 129 255 255 255 
255 255 255 255 255 255 255 255 255 255 255 255 255 255 255 255 255 255 255 255 255 255 255 255 255 255 255 255 255 255 255 255 255 255 255 255 255 255 255 255 255 255 255 255 255 255 255 255 255 255 255 255 255 255 255 255 255 223 206 211 110 0 5 160 59 63 212 184 150 255 245 192 247 234 181 236 229 171 241 227 168 247 240 180 217 171 162 150 0 7 159 13 18 158 11 21 154 0 10 175 128 142 231 224 219 138 63 77 182 25 37 236 21 32 237 27 38 235 27 39 237 26 38 240 29 33 172 0 10 240 233 235 255 255 255 
255 255 255 255 255 255 255 255 255 255 255 255 255 255 255 255 255 255 255 255 255 255 255 255 252 255 255 254 255 254 255 255 253 252 255 253 255 255 255 251 252 255 195 150 160 118 0 4 146 0 11 145 42 53 156 82 97 157 59 64 248 240 186 250 244 188 247 231 177 233 229 169 233 229 175 244 223 177 237 230 174 246 239 184 118 36 37 214 19 40 251 26 36 245 31 31 238 24 41 148 69 84 238 232 232 255 255 255 207 185 193 200 83 95 196 9 17 245 20 32 241 24 39 241 29 37 159 0 5 248 253 255 255 255 255 
255 255 255 255 255 255 255 255 255 255 255 255 255 255 255 255 255 255 255 255 255 255 254 255 255 253 255 255 254 255 254 255 255 255 255 255 168 106 121 114 0 6 184 60 74 243 34 49 253 24 34 227 26 41 168 77 82 248 253 194 235 234 168 237 228 177 238 227 177 239 226 177 241 226 174 239 227 172 235 242 180 208 159 134 179 11 27 242 28 41 242 25 33 238 26 34 240 30 44 110 0 0 206 175 184 255 255 255 255 255 255 255 255 255 220 176 180 221 44 53 232 25 28 244 28 33 160 0 7 246 254 255 255 255 255 
255 255 255 255 255 255 255 255 255 255 255 255 255 255 255 255 255 255 255 255 255 255 255 255 248 254 251 254 255 255 255 255 255 146 81 95 154 12 29 238 27 40 247 20 33 238 25 33 234 28 31 246 25 37 144 21 27 240 222 183 249 240 184 244 237 185 238 228 177 238 227 176 247 235 181 249 244 191 250 241 193 148 66 58 204 18 33 240 30 35 234 29 34 240 25 35 236 24 37 222 56 66 153 64 78 255 255 255 253 255 255 250 253 248 255 255 255 163 94 111 222 43 55 253 23 26 172 0 1 247 251 255 255 255 255 
255 255 255 255 255 255 255 255 255 255 255 255 254 255 255 254 255 254 254 255 254 255 255 255 255 255 255 201 171 174 130 12 27 216 44 52 245 25 39 236 28 37 231 29 33 237 26 36 238 26 39 241 28 37 182 17 36 104 1 10 197 140 119 188 131 100 255 234 190 254 255 201 190 135 116 132 44 49 138 36 54 128 0 15 190 16 29 224 32 34 243 24 40 233 28 37 241 25 39 239 25 32 211 27 36 124 0 13 220 200 209 255 255 255 253 254 255 250 255 255 128 18 40 227 46 54 168 0 0 249 252 255 255 255 255 
255 255 255 255 255 255 255 255 255 255 255 255 254 254 255 255 252 255 254 255 255 242 238 244 134 58 70 183 19 40 239 31 39 241 23 32 237 26 35 237 26 35 237 26 36 237 27 35 236 27 35 244 28 34 178 0 8 231 207 178 213 166 141 190 139 115 133 46 45 148 33 42 194 133 145 255 255 255 255 255 255 194 147 154 151 9 21 245 40 55 247 26 32 237 27 37 241 26 33 236 29 31 241 27 34 208 23 35 187 153 163 255 255 255 255 255 255 255 255 255 255 255 255 131 24 39 127 2 21 229 224 220 255 255 255 
255 255 255 255 255 255 255 255 255 255 255 255 255 254 254 248 255 255 255 255 255 135 48 65 225 28 29 243 25 34 235 28 33 238 26 35 236 26 36 237 27 36 237 27 36 237 27 36 236 27 36 244 28 37 177 0 10 227 215 168 242 240 173 254 239 176 242 211 174 135 35 56 255 255 255 250 251 252 255 255 255 255 255 255 223 203 211 123 0 15 164 0 4 217 23 33 220 9 21 222 8 19 222 12 29 129 0 0 255 255 255 251 255 255 255 255 255 255 255 255 255 255 255 255 255 255 255 255 255 255 254 255 255 255 255 
255 255 255 255 255 255 255 255 255 255 255 255 254 255 253 255 255 255 181 148 154 179 6 19 245 26 37 241 25 38 228 31 39 236 26 36 237 26 35 237 27 36 237 27 36 237 27 36 236 26 36 243 28 36 176 0 9 233 209 174 241 231 177 237 228 176 244 249 187 150 59 57 255 255 255 253 254 255 254 254 255 252 252 253 255 255 255 255 255 255 242 237 241 177 130 143 184 138 149 182 142 147 179 131 139 228 212 218 251 255 255 252 255 254 255 255 255 255 255 255 254 255 253 253 254 255 252 255 255 251 254 253 255 255 255 
255 255 255 253 255 255 255 251 255 246 255 251 255 255 255 179 143 154 163 9 20 244 29 42 237 26 35 237 27 35 236 26 35 237 26 35 237 27 36 237 27 36 237 27 36 237 27 36 237 26 35 240 28 37 183 1 10 220 193 162 236 236 176 240 227 177 245 240 183 167 92 71 203 165 174 255 255 255 252 255 255 255 255 255 255 255 255 255 255 255 255 255 255 255 255 255 255 255 255 255 255 255 255 255 255 255 255 255 255 255 255 255 255 255 255 255 255 255 255 255 255 255 255 255 255 255 255 255 255 254 255 255 255 255 255 
255 255 255 253 255 254 252 255 255 253 255 255 198 158 161 170 6 22 243 39 49 241 26 30 236 27 36 236 26 36 237 27 36 237 27 36 237 27 36 237 27 36 237 27 36 237 27 36 237 26 36 235 27 34 245 24 43 148 34 31 253 245 191 241 226 175 240 238 179 210 148 125 201 175 176 255 255 255 255 255 255 237 231 238 210 184 187 202 164 172 238 228 234 255 255 255 251 252 254 254 253 255 255 255 255 255 255 255 255 255 255 255 255 255 255 255 255 255 255 255 255 255 255 255 255 255 255 255 255 255 255 255 255 255 255 
255 255 255 255 255 253 253 255 255 255 252 255 130 0 6 240 36 43 245 22 29 231 29 34 236 27 36 237 26 36 237 27 36 237 27 36 237 27 36 237 27 36 237 27 36 237 27 36 237 26 36 235 28 33 245 22 38 158 43 40 246 247 197 242 225 176 237 240 180 190 129 104 181 129 143 182 144 154 141 39 53 158 0 4 202 5 12 208 4 18 131 19 36 232 218 221 255 255 255 255 255 255 255 255 255 255 255 255 255 255 255 255 255 255 255 255 255 255 255 255 255 255 255 255 255 255 255 255 255 255 255 255 255 255 255 
255 255 255 249 255 254 255 255 255 149 76 90 198 32 46 241 25 33 241 25 34 238 26 37 236 27 35 237 27 36 237 27 36 237 27 36 237 27 36 237 27 36 237 27 36 237 27 36 236 27 35 237 25 36 248 26 35 155 54 57 251 245 187 239 227 176 238 231 174 246 222 181 122 0 0 214 16 27 248 26 35 255 32 49 162 26 24 235 44 61 235 36 44 154 11 21 130 17 38 181 130 138 240 238 241 252 255 255 252 255 254 255 255 254 255 255 255 255 255 255 255 255 255 255 255 255 255 255 255 255 255 255 255 255 255 
255 255 255 255 255 255 219 206 212 152 0 12 247 27 41 237 26 35 236 27 36 236 27 35 237 27 36 237 27 36 237 27 36 237 27 36 237 27 36 237 27 36 237 27 36 237 27 36 237 26 35 237 26 38 229 21 22 170 92 92 243 246 181 237 228 176 241 227 172 255 249 202 153 0 3 247 46 64 168 17 23 128 14 29 129 15 42 137 41 58 164 29 39 149 0 7 186 44 50 193 0 6 192 155 165 255 255 255 249 255 254 255 254 254 255 255 255 255 255 255 255 255 255 255 255 255 255 255 255 255 255 255 255 255 255 
255 255 255 255 255 255 162 111 115 221 24 36 236 28 31 237 26 36 237 27 36 236 27 36 236 27 36 237 26 36 237 26 36 236 26 36 237 26 36 237 26 36 237 26 36 237 27 36 236 27 35 239 26 38 227 20 22 167 94 92 244 244 181 235 229 176 243 224 171 253 250 199 122 0 16 115 3 15 172 57 72 242 21 37 247 36 42 176 26 38 170 88 103 200 182 190 131 33 48 204 38 57 162 89 99 255 255 255 248 254 255 255 253 255 255 255 255 255 255 255 255 255 255 255 255 255 255 255 255 255 255 255 255 255 255 
255 255 255 255 255 255 140 9 16 251 24 42 231 29 32 237 26 36 236 27 36 237 27 36 242 25 33 235 28 33 232 30 35 238 26 34 235 28 33 233 29 32 236 27 33 237 26 36 236 26 36 238 27 35 233 17 27 169 95 87 248 241 183 237 227 176 242 226 175 248 249 194 126 5 18 217 43 51 238 34 28 251 23 37 152 19 24 219 25 45 228 32 34 178 21 37 160 55 64 127 0 10 230 200 205 250 255 255 253 253 255 255 254 255 255 255 255 255 255 255 255 255 255 255 255 255 255 255 255 255 255 255 255 255 255 
255 255 255 197 162 171 188 2 11 241 27 40 239 26 32 236 27 36 237 26 35 236 27 36 231 29 41 238 25 38 246 22 35 235 29 35 243 23 37 240 24 39 234 28 38 237 26 35 237 26 36 236 28 33 234 15 32 171 95 84 246 242 186 239 226 176 238 226 176 247 245 189 164 79 76 231 18 30 249 29 37 176 22 34 171 104 120 158 107 116 181 8 12 255 22 26 241 39 46 146 0 8 211 200 210 255 255 255 255 253 255 255 255 255 255 255 255 255 255 255 255 255 255 255 255 255 255 255 255 255 255 255 255 255 255 
255 255 255 183 115 128 230 13 27 232 30 38 242 24 33 236 27 36 237 26 36 236 27 36 237 30 24 254 26 34 251 33 43 251 34 49 251 32 43 255 29 35 245 24 31 236 27 36 236 27 35 236 28 33 233 16 32 170 96 84 247 242 185 239 226 176 239 227 177 243 237 183 195 150 125 205 15 34 164 2 24 186 164 163 255 255 255 255 255 255 131 29 54 155 14 35 150 11 32 162 91 106 255 255 255 253 255 254 255 253 255 254 255 255 255 255 255 255 255 255 255 255 255 255 255 255 255 255 255 255 255 255 255 255 255 
255 255 255 178 122 130 222 15 22 239 26 37 235 28 34 237 26 35 236 29 35 248 23 35 244 33 52 114 10 19 0 0 0 0 0 0 0 0 0 102 10 13 229 36 50 248 26 31 240 24 40 237 29 29 234 15 32 171 95 84 247 242 185 239 227 176 238 227 177 244 237 184 196 142 112 136 33 45 230 210 222 255 255 255 99 0 14 242 229 228 255 255 255 255 255 255 255 255 255 255 255 255 250 255 254 250 253 253 255 253 255 254 255 255 255 255 255 255 255 255 255 255 255 255 255 255 255 255 255 255 255 255 255 255 255 
255 255 255 184 120 131 221 16 24 242 25 37 234 28 34 243 24 35 243 26 33 229 35 45 6 0 0 58 81 80 226 223 228 255 255 255 225 234 233 86 94 95 0 0 0 221 37 37 229 32 40 237 28 29 233 16 32 170 96 84 247 242 185 239 226 176 238 227 177 241 233 180 217 180 147 184 133 157 214 182 192 140 57 65 210 36 54 141 18 29 187 159 164 255 255 255 252 255 255 252 254 255 255 255 255 255 255 255 255 255 255 255 255 255 255 255 255 255 255 255 255 255 255 255 255 255 255 255 255 255 255 255 255 255 255 
255 255 255 184 120 131 221 16 24 241 25 37 238 26 34 241 25 32 252 29 45 49 0 0 98 113 115 255 255 255 255 255 255 255 255 255 255 255 255 255 255 255 145 157 163 10 0 0 255 28 42 237 26 38 234 15 31 171 95 84 247 242 185 239 227 176 238 227 177 240 230 179 236 211 167 138 9 21 207 4 13 232 28 46 171 0 7 182 11 24 193 11 28 147 14 36 191 154 159 255 255 255 255 255 255 255 255 255 255 255 255 255 255 255 255 255 255 255 255 255 255 255 255 255 255 255 255 255 255 255 255 255 255 255 255 
255 255 255 184 120 131 221 16 24 241 26 37 241 25 34 235 30 32 227 30 43 0 0 0 255 255 255 255 255 253 224 225 220 85 84 84 255 255 255 255 255 255 255 255 255 0 14 19 184 28 32 247 28 29 233 16 32 170 96 84 247 242 185 239 226 176 238 226 177 239 226 177 247 249 193 162 64 66 153 17 32 156 67 82 217 220 217 208 168 179 147 8 19 164 20 35 133 45 62 255 255 255 255 255 255 255 255 255 255 255 255 255 255 255 255 255 255 255 255 255 255 255 255 255 255 255 255 255 255 255 255 255 255 255 255 
255 255 255 184 120 131 221 16 24 241 25 37 241 25 34 241 28 37 187 17 31 27 47 45 255 255 255 255 255 255 127 127 127 0 0 0 233 234 233 255 255 255 255 255 255 57 69 70 164 15 26 246 29 29 234 15 32 171 95 84 247 242 185 239 226 175 239 228 173 238 226 175 244 237 182 188 136 109 201 145 162 255 255 255 255 255 255 255 255 255 235 218 228 222 203 208 255 255 255 255 255 255 255 255 255 255 255 255 255 255 255 255 255 255 255 255 255 255 255 255 255 255 255 255 255 255 255 255 255 255 255 255 255 255 255 
255 255 255 184 120 131 221 16 24 241 26 37 241 25 33 235 30 33 223 34 50 0 0 0 255 255 255 254 254 254 253 253 253 179 179 179 255 255 255 254 254 253 255 255 255 0 15 8 218 20 38 237 29 35 234 16 32 170 96 84 247 242 185 238 228 168 245 234 183 238 228 170 243 229 172 249 228 189 124 49 62 255 255 255 253 255 255 249 255 254 252 255 255 251 255 255 255 252 254 250 255 255 254 255 255 255 255 255 255 255 255 255 255 255 255 255 255 255 255 255 255 255 255 255 255 255 255 255 255 255 255 255 255 255 255 
255 255 255 184 120 131 221 16 24 241 25 37 239 26 34 226 33 31 255 24 42 51 0 2 89 103 102 255 255 255 255 255 255 255 255 255 255 255 255 255 255 255 113 129 127 41 0 0 248 35 34 239 27 32 236 16 32 169 91 81 247 242 185 245 233 180 170 154 127 245 233 185 243 234 174 218 180 143 180 123 130 255 255 255 255 254 255 255 253 255 255 252 255 253 251 255 251 254 255 253 254 253 255 254 255 255 255 255 255 255 255 255 255 255 255 255 255 255 255 255 255 255 255 255 255 255 255 255 255 255 255 255 255 255 255 
255 255 255 181 120 131 220 16 24 241 25 37 235 28 33 239 26 36 236 26 34 237 36 40 2 0 0 48 68 68 208 215 211 247 255 247 216 221 222 64 80 81 0 0 0 222 32 44 242 27 31 243 25 38 192 11 30 183 138 112 248 237 182 249 240 193 55 49 38 255 242 190 242 228 173 247 230 179 155 59 74 255 255 255 255 255 255 255 255 255 255 255 255 254 255 255 254 255 255 255 255 255 255 255 255 255 255 255 255 255 255 255 255 255 255 255 255 255 255 255 255 255 255 255 255 255 255 255 255 255 255 255 255 255 255 
255 255 255 186 120 132 228 13 24 244 23 37 234 29 33 239 26 36 235 28 36 238 29 36 250 36 38 119 14 22 23 0 0 0 0 0 0 0 0 117 11 17 245 30 47 255 19 30 235 29 31 243 27 39 168 0 11 234 213 179 238 234 176 249 240 193 64 59 45 255 242 190 235 231 173 255 231 191 141 59 74 255 255 255 255 255 255 255 255 255 255 255 255 255 255 255 255 255 255 255 255 255 255 255 255 255 255 255 255 255 255 255 255 255 255 255 255 255 255 255 255 255 255 255 255 255 255 255 255 255 255 255 255 255 255 
255 255 255 177 119 128 217 23 28 241 25 37 235 28 33 238 26 36 238 26 35 240 25 36 241 25 38 250 26 36 255 28 37 252 33 42 255 27 44 249 29 33 236 30 29 230 30 35 236 27 35 244 28 36 172 0 13 227 209 173 242 231 176 249 241 193 64 59 45 255 242 190 244 238 179 187 130 110 215 172 178 255 255 255 255 255 255 255 255 255 255 255 255 255 255 255 255 255 255 255 255 255 255 255 255 255 255 255 255 255 255 255 255 255 255 255 255 255 255 255 255 255 255 255 255 255 255 255 255 255 255 255 255 255 255 
255 255 255 196 168 174 207 11 21 238 28 38 236 27 34 236 26 36 237 27 36 238 26 35 234 29 33 233 29 33 237 27 35 232 30 33 235 27 35 238 26 37 238 25 37 237 26 38 238 25 37 242 29 35 172 0 10 228 209 170 243 231 174 249 240 194 64 59 45 255 242 190 246 236 178 192 128 104 217 189 199 255 255 255 255 255 255 255 255 255 255 255 255 255 255 255 255 255 255 255 255 255 255 255 255 255 255 255 255 255 255 255 255 255 255 255 255 255 255 255 255 255 255 255 255 255 255 255 255 255 255 255 255 255 255 
255 255 255 205 188 195 202 0 12 236 30 38 236 27 35 237 26 36 236 27 36 236 27 36 237 26 36 237 26 36 237 26 36 237 26 36 237 26 36 236 27 35 236 27 35 236 27 35 236 27 35 245 27 36 171 0 8 227 209 170 242 232 173 249 240 193 64 59 45 255 242 190 244 237 179 191 130 102 215 188 200 255 255 255 255 255 255 255 255 255 255 255 255 255 255 255 255 255 255 255 255 255 255 255 255 255 255 255 255 255 255 255 255 255 255 255 255 255 255 255 255 255 255 255 255 255 255 255 255 255 255 255 255 255 255 
255 255 255 205 187 194 204 0 13 236 30 38 236 27 35 237 26 36 237 27 36 237 27 36 237 27 36 237 27 36 236 27 36 236 27 36 236 27 36 237 27 36 237 27 36 237 27 36 236 27 36 245 28 36 171 0 8 227 209 169 242 232 173 249 240 194 64 60 45 255 242 191 245 237 178 191 130 102 215 188 200 255 255 255 255 255 255 255 255 255 255 255 255 255 255 255 255 255 255 255 255 255 255 255 255 255 255 255 255 255 255 255 255 255 255 255 255 255 255 255 255 255 255 255 255 255 255 255 255 255 255 255 255 255 255 
255 255 255 205 187 193 196 1 12 240 27 37 235 28 35 237 26 36 237 27 36 236 27 36 236 27 36 236 26 34 239 26 34 240 26 34 237 26 34 236 27 35 236 27 36 237 27 36 236 27 36 247 26 35 166 0 10 231 211 176 241 233 172 252 241 190 56 49 42 255 244 186 242 240 181 194 129 111 213 184 193 255 255 255 255 255 255 255 255 255 255 255 255 255 255 255 255 255 255 255 255 255 255 255 255 255 255 255 255 255 255 255 255 255 255 255 255 255 255 255 255 255 255 255 255 255 255 255 255 255 255 255 255 255 255 
255 255 255 211 186 193 192 2 8 244 26 37 236 27 35 237 26 36 236 27 36 237 27 36 240 25 36 235 27 35 228 31 35 228 31 36 232 29 35 239 26 36 238 26 36 236 27 36 236 27 36 247 25 34 183 9 23 219 186 161 239 236 175 255 244 188 61 52 51 255 246 182 247 242 186 149 66 61 240 228 230 254 255 255 255 255 255 255 255 255 255 255 255 255 255 255 255 255 255 255 255 255 255 255 255 255 255 255 255 255 255 255 255 255 255 255 255 255 255 255 255 255 255 255 255 255 255 255 255 255 255 255 255 255 255 
255 255 255 175 127 139 207 5 14 241 27 37 236 27 35 237 26 36 237 26 36 236 27 36 231 30 33 252 20 38 255 22 46 255 24 48 255 20 41 240 25 34 231 29 34 237 26 36 236 26 36 238 26 31 229 25 47 161 94 78 244 242 187 255 244 189 62 53 53 255 247 182 250 241 190 144 46 52 255 255 255 253 254 255 255 255 255 255 255 255 255 255 255 255 255 255 255 255 255 255 255 255 255 255 255 255 255 255 255 255 255 255 255 255 255 255 255 255 255 255 255 255 255 255 255 255 255 255 255 255 255 255 255 255 255 
255 255 255 178 122 137 206 7 19 241 27 35 236 27 36 237 27 35 235 28 34 241 25 33 255 25 41 205 33 44 115 10 12 104 9 8 155 22 27 249 33 49 253 21 33 234 28 32 238 26 35 235 28 31 236 15 36 174 94 84 244 242 190 255 244 187 58 53 52 255 246 184 244 244 188 154 54 58 253 255 255 255 253 255 255 255 255 255 255 255 255 255 255 255 255 255 255 255 255 255 255 255 255 255 255 255 255 255 255 255 255 255 255 255 255 255 255 255 255 255 255 255 255 255 255 255 255 255 255 255 255 255 255 255 255 
255 255 255 183 123 137 161 0 8 250 26 36 235 28 35 238 27 32 244 24 30 243 36 46 82 5 8 0 0 0 87 103 100 115 132 126 23 39 38 0 0 0 187 37 40 254 23 34 238 27 32 233 30 35 234 15 31 170 95 84 247 242 184 255 244 190 52 53 48 253 244 197 249 242 182 154 71 59 255 253 255 255 255 255 255 255 255 255 255 255 255 255 255 255 255 255 255 255 255 255 255 255 255 255 255 255 255 255 255 255 255 255 255 255 255 255 255 255 255 255 255 255 255 255 255 255 255 255 255 255 255 255 255 255 255 
255 255 255 179 121 132 160 5 18 245 28 44 233 28 33 239 27 33 255 27 45 86 4 11 35 59 54 255 255 255 255 255 255 255 255 255 255 255 255 190 193 197 0 0 0 229 27 52 239 29 33 234 29 33 234 16 32 170 96 84 247 242 185 253 240 189 85 76 60 253 242 195 248 243 183 154 70 59 255 253 255 255 255 255 255 255 255 255 255 255 255 255 255 255 255 255 255 255 255 255 255 255 255 255 255 255 255 255 255 255 255 255 255 255 255 255 255 255 255 255 255 255 255 255 255 255 255 255 255 255 255 255 255 255 255 
255 255 255 201 153 160 127 0 5 230 28 45 233 30 34 245 24 34 215 32 44 0 0 0 255 255 255 253 253 253 255 255 255 255 255 255 255 255 255 255 255 255 121 132 137 56 2 2 255 25 37 240 27 31 233 15 32 171 95 84 247 242 185 238 229 168 255 240 193 239 228 170 248 243 183 154 71 59 255 254 255 255 255 255 255 255 255 255 255 255 255 255 255 255 255 255 255 255 255 255 255 255 255 255 255 255 255 255 255 255 255 255 255 255 255 255 255 255 255 255 255 255 255 255 255 255 255 255 255 255 255 255 255 255 255 
255 255 255 193 150 159 131 32 46 202 26 40 241 29 33 246 29 34 135 12 22 69 94 84 255 255 255 255 255 255 172 172 172 0 0 0 210 210 209 255 255 255 234 237 234 0 0 0 253 32 46 235 29 32 233 16 32 170 96 84 247 242 186 239 226 177 238 227 176 238 226 177 248 241 184 151 73 65 255 253 253 255 254 255 255 255 255 255 255 255 255 255 255 255 255 255 255 255 255 255 255 255 255 255 255 255 255 255 255 255 255 255 255 255 255 255 255 255 255 255 255 255 255 255 255 255 255 255 255 255 255 255 255 255 255 
255 255 255 255 255 255 129 0 23 151 15 21 246 28 40 254 24 39 121 13 18 75 94 93 255 255 255 255 255 255 99 99 99 17 17 17 255 255 255 255 255 255 233 241 241 0 0 0 238 39 46 244 23 38 233 15 31 171 95 84 247 242 185 239 227 176 238 227 177 238 227 176 253 248 194 119 27 38 255 255 255 251 255 255 255 255 255 255 255 255 255 255 255 255 255 255 255 255 255 255 255 255 255 255 255 255 255 255 255 255 255 255 255 255 255 255 255 255 255 255 255 255 255 255 255 255 255 255 255 255 255 255 255 255 255 
255 255 255 255 255 255 190 139 150 125 0 0 247 27 45 237 31 26 220 29 43 0 0 0 255 255 255 254 254 254 255 255 255 255 255 255 253 253 253 255 255 255 111 125 123 71 3 8 255 29 29 237 28 35 233 16 32 170 96 84 247 242 185 238 227 177 238 227 177 240 232 180 225 191 151 175 98 116 255 255 255 255 253 252 255 255 255 255 255 255 255 255 255 255 255 255 255 255 255 255 255 255 255 255 255 255 255 255 255 255 255 255 255 255 255 255 255 255 255 255 255 255 255 255 255 255 255 255 255 255 255 255 255 255 255 
255 255 255 255 255 255 210 191 200 119 0 0 238 33 44 236 28 29 255 28 45 65 4 6 61 71 73 255 255 255 255 255 255 255 255 255 255 255 255 208 213 215 0 0 0 205 33 49 247 25 30 237 28 32 234 15 32 171 95 84 247 242 185 241 226 173 238 226 176 252 240 187 149 64 54 241 237 244 255 255 255 248 255 252 255 255 255 221 202 207 238 231 235 255 255 255 253 250 255 253 254 252 254 255 254 255 255 255 255 255 255 255 255 255 255 255 255 255 255 255 255 255 255 255 255 255 255 255 255 255 255 255 255 255 255 
255 255 255 252 255 255 255 255 255 123 0 17 228 24 40 236 29 33 250 22 30 250 33 48 60 0 5 0 2 0 102 114 114 139 141 148 33 56 50 0 0 0 180 32 45 255 22 36 236 28 30 239 27 35 233 16 32 170 96 84 246 242 186 242 225 174 234 231 174 255 250 205 142 16 31 141 15 23 164 92 103 246 249 255 172 111 117 169 7 28 140 12 25 163 113 118 255 255 255 253 254 254 255 255 255 255 255 255 255 255 255 255 255 255 255 255 255 255 255 255 255 255 255 255 255 255 255 255 255 255 255 255 255 255 255 
255 255 255 255 255 252 255 255 255 123 15 35 206 29 40 245 25 33 227 32 32 235 29 31 255 31 35 201 30 38 113 8 17 88 0 9 157 21 30 247 37 43 248 27 29 227 32 32 235 28 33 240 26 32 234 15 32 171 95 84 246 242 186 239 227 176 242 238 178 204 156 134 153 12 28 214 7 26 214 32 41 160 0 0 187 22 33 178 2 23 143 36 50 217 179 193 255 255 255 252 254 253 255 255 254 255 255 255 255 255 255 255 255 255 255 255 255 255 255 255 255 255 255 255 255 255 255 255 255 255 255 255 255 255 255 
255 255 255 254 253 254 255 255 255 176 96 111 170 4 15 242 29 33 239 25 37 243 24 35 237 26 38 242 26 34 252 27 32 255 27 32 247 27 33 238 26 36 240 25 37 237 26 36 238 26 36 235 29 31 231 17 30 173 95 82 238 246 183 240 226 174 242 239 178 190 114 104 213 188 192 198 166 176 147 21 34 214 44 57 141 21 33 216 204 203 255 255 255 251 255 255 254 254 252 251 254 250 255 255 254 255 255 255 255 255 255 255 255 255 255 255 255 255 255 255 255 255 255 255 255 255 255 255 255 255 255 255 255 255 255 
255 255 255 255 254 255 255 255 255 180 128 138 159 0 14 247 28 38 237 27 34 233 28 36 237 26 35 237 27 36 236 26 36 236 27 36 236 26 36 237 27 35 236 27 35 237 27 35 236 26 36 239 26 33 233 16 30 174 93 82 244 244 184 242 226 173 245 245 184 163 76 68 156 69 83 253 255 255 232 225 230 107 0 21 255 255 255 255 255 255 255 255 255 255 255 255 255 255 255 253 255 255 255 255 255 255 255 255 255 255 255 255 255 255 255 255 255 255 255 255 255 255 255 255 255 255 255 255 255 255 255 255 255 255 255 
255 255 255 252 254 255 255 255 255 234 219 222 117 0 0 239 27 45 234 30 30 236 27 38 237 26 36 236 27 35 237 27 36 237 27 36 237 27 36 237 27 36 237 27 36 237 27 36 236 27 36 238 26 33 230 19 35 166 91 83 247 240 187 242 225 173 244 246 183 172 85 79 227 30 52 151 5 23 224 211 213 255 255 255 255 255 255 120 5 27 150 25 31 126 15 27 192 149 157 255 255 255 255 255 255 255 255 255 255 255 255 255 255 255 255 255 255 255 255 255 255 255 255 255 255 255 255 255 255 255 255 255 255 255 255 
255 255 255 250 254 255 254 251 255 255 255 255 124 12 33 222 24 40 239 26 28 238 25 40 237 26 36 236 27 35 237 27 36 237 27 36 237 27 36 237 27 36 237 27 36 237 27 36 237 26 35 239 26 35 191 17 35 194 151 124 243 236 183 241 226 174 248 251 193 149 26 30 248 22 33 217 42 36 158 12 29 193 148 164 139 59 73 208 21 26 255 18 27 244 41 54 115 0 7 249 255 255 255 255 255 255 255 255 255 255 255 255 255 255 255 255 255 255 255 255 255 255 255 255 255 255 255 255 255 255 255 255 255 255 255 
255 255 255 251 255 255 255 252 255 252 255 255 194 142 153 210 13 29 245 27 31 235 28 33 237 26 36 237 27 36 237 27 36 237 27 36 237 27 36 237 27 36 237 27 36 237 27 36 237 26 35 239 28 40 134 13 25 255 252 201 234 229 175 242 230 175 234 215 174 131 0 11 230 43 58 247 20 30 241 34 46 141 11 14 221 34 40 231 26 35 168 29 37 143 41 50 137 18 37 236 235 237 255 255 255 255 255 255 255 255 255 255 255 255 255 255 255 255 255 255 255 255 255 255 255 255 255 255 255 255 255 255 255 255 255 
255 255 255 255 254 255 254 254 255 255 255 255 220 208 210 116 0 0 228 45 54 238 28 30 237 26 35 237 26 35 237 26 35 237 27 36 237 27 36 237 27 36 237 27 35 237 26 36 238 26 35 227 23 40 168 105 88 244 243 189 235 228 178 245 232 176 222 190 156 141 0 26 113 11 17 193 55 66 238 27 42 239 36 53 165 28 39 169 129 132 196 156 177 131 16 34 204 17 39 193 159 165 255 255 255 255 255 255 255 255 255 255 255 255 255 255 255 255 255 255 255 255 255 255 255 255 255 255 255 255 255 255 255 255 255 
255 255 255 255 254 253 254 255 253 255 252 255 255 255 255 163 102 124 148 0 16 244 30 43 238 26 35 235 27 37 235 27 35 237 26 35 237 27 36 237 27 35 236 27 36 236 27 35 241 27 36 202 1 21 196 159 127 240 237 183 243 224 179 244 230 178 211 202 155 188 9 27 228 35 62 146 13 25 146 12 29 134 25 43 142 40 53 171 11 34 134 0 8 212 61 71 155 0 0 233 225 233 255 255 255 252 255 255 255 254 255 255 254 255 255 255 255 255 255 255 255 255 255 255 255 255 255 255 255 255 255 255 255 255 255 
255 255 255 255 255 255 255 255 255 255 255 255 255 255 255 252 240 245 103 0 12 187 49 55 247 24 33 237 26 36 235 28 37 236 27 36 237 26 35 236 27 35 239 25 38 233 29 33 247 24 36 204 10 31 196 166 131 244 235 180 239 226 176 240 237 178 211 167 141 143 0 0 237 15 31 255 28 34 223 41 46 169 21 31 236 52 61 231 29 40 158 9 23 133 13 32 200 161 172 247 254 255 255 254 255 255 251 255 252 254 253 254 255 254 255 255 255 255 255 255 255 255 255 255 255 255 255 255 255 255 255 255 255 255 255 
255 255 255 255 255 255 255 255 255 255 255 255 255 254 254 255 255 255 209 154 171 117 0 0 223 36 40 243 25 31 241 24 36 236 27 37 237 27 35 236 27 35 239 25 38 233 29 33 244 28 38 177 0 7 236 216 180 239 232 176 242 225 176 245 242 180 159 68 61 205 173 190 169 116 130 134 15 31 176 0 10 216 2 22 195 17 28 133 50 59 255 255 255 255 255 255 255 255 255 255 255 255 247 255 255 252 253 253 254 254 255 254 254 255 255 255 255 255 255 255 255 255 255 255 255 255 255 255 255 255 255 255 255 255 255 
255 255 255 255 255 255 255 255 255 255 255 255 254 255 253 255 255 255 248 255 255 183 138 149 125 8 25 235 32 41 240 26 34 235 27 36 236 27 37 235 27 35 240 24 38 233 29 33 241 30 38 173 0 9 229 214 176 236 233 177 242 226 177 250 250 188 148 48 38 255 255 255 255 255 255 251 254 255 234 230 232 197 184 184 171 124 141 204 179 181 151 79 89 155 80 97 155 78 94 155 74 84 200 152 167 255 255 255 253 254 255 255 253 254 255 255 255 255 255 255 254 255 255 255 255 255 255 255 255 255 254 255 255 255 255 
255 255 255 255 255 255 255 255 255 255 255 255 255 255 255 255 255 255 255 255 255 255 255 255 237 222 225 131 9 29 218 35 38 242 26 34 240 25 38 232 29 37 245 23 34 231 28 42 239 32 31 181 0 5 226 223 175 255 238 185 243 250 190 225 188 159 143 50 75 255 255 255 252 254 255 255 255 255 255 255 255 204 177 182 159 5 25 198 1 14 241 30 42 244 18 28 240 20 31 248 20 33 134 0 9 249 239 249 251 255 254 255 254 252 253 253 252 255 255 255 255 255 255 255 255 255 255 252 255 250 252 254 255 255 255 
255 255 255 255 255 255 255 255 255 255 255 255 255 255 255 255 255 255 255 255 255 255 255 255 253 255 255 226 217 218 134 0 2 234 38 44 246 23 28 235 28 32 239 26 33 234 27 39 248 27 33 180 0 14 217 182 154 176 112 87 165 70 65 149 50 51 160 64 73 161 69 92 252 248 254 255 255 255 170 104 113 168 0 11 244 40 46 245 24 31 239 24 37 232 29 35 243 25 27 244 28 32 205 8 17 185 144 149 255 255 255 254 254 251 249 255 255 250 238 248 115 0 0 109 0 0 232 225 224 255 255 255 255 255 255 
255 255 255 255 255 255 255 255 255 255 255 255 255 255 255 255 255 255 255 255 255 254 255 255 254 253 255 255 255 255 171 96 105 152 6 26 246 34 46 240 27 26 237 28 28 235 27 36 240 32 34 176 17 33 104 0 11 232 204 172 218 196 157 250 242 191 250 250 190 218 194 154 157 68 57 127 22 28 115 0 0 171 10 22 233 31 42 227 32 32 230 30 37 241 24 35 243 27 32 182 21 32 147 65 78 235 230 231 255 255 255 255 255 255 241 227 239 130 0 12 254 47 51 174 0 3 246 255 255 253 255 255 255 255 255 
255 255 255 255 255 255 255 255 255 255 255 255 255 255 255 255 255 255 255 255 255 255 255 255 253 254 255 255 255 255 253 251 255 142 42 62 172 2 22 234 35 43 243 24 34 230 31 31 250 24 40 139 32 35 255 255 207 240 232 175 244 229 179 236 228 175 239 227 173 245 230 179 244 244 184 255 255 204 174 98 91 217 23 41 236 29 36 245 22 40 241 25 35 243 27 32 208 44 61 155 90 102 255 255 255 254 255 255 249 253 251 255 255 255 151 85 93 231 41 54 247 23 30 165 0 5 249 255 255 255 255 255 255 255 255 
255 255 255 255 255 255 255 255 255 255 255 255 255 255 255 255 255 255 255 255 255 255 255 255 255 254 255 253 254 254 255 255 255 255 255 255 138 59 71 134 0 10 235 31 47 241 24 27 217 18 38 161 71 74 255 255 201 246 233 171 240 227 168 239 226 177 238 227 177 238 227 177 243 224 174 231 243 180 206 163 137 162 3 19 225 27 41 237 28 35 243 26 30 219 37 39 107 0 0 207 183 186 255 255 255 255 255 255 255 255 255 198 110 117 227 26 42 237 23 36 235 31 36 165 0 5 250 255 255 255 255 255 255 255 255 
255 255 255 255 255 255 255 255 255 255 255 255 255 255 255 255 255 255 255 255 255 255 255 255 253 254 255 255 253 255 253 255 255 249 255 255 255 255 255 238 237 236 134 27 44 149 45 57 161 96 106 189 138 153 123 23 31 230 210 169 250 248 193 245 238 184 238 228 176 239 226 177 239 227 176 238 228 173 251 242 195 148 76 68 224 13 35 248 27 39 245 28 42 221 26 39 168 98 116 255 255 255 255 255 255 174 124 133 191 33 52 223 18 29 242 24 31 248 21 33 247 26 36 163 0 4 253 255 255 255 255 255 255 255 255 
255 255 255 255 255 255 255 255 255 255 255 255 255 255 255 255 255 255 255 255 255 255 255 255 253 255 255 255 252 255 255 254 255 253 253 254 253 253 254 255 255 255 255 255 255 255 255 255 255 255 255 255 255 255 254 236 243 129 37 52 150 46 57 176 118 96 255 238 199 245 241 183 234 230 177 242 226 169 241 249 187 190 145 133 145 9 21 161 10 15 153 13 26 133 0 2 168 105 112 193 160 161 141 27 40 216 31 50 241 23 27 246 23 36 235 29 35 232 29 33 241 27 39 175 6 15 227 214 217 255 255 255 255 255 255 
255 255 255 255 255 255 255 255 255 255 255 255 255 255 255 255 255 255 255 255 255 255 255 255 255 255 255 255 255 255 255 255 255 255 255 255 255 255 255 255 255 255 255 255 255 255 255 255 255 255 255 253 254 255 249 255 255 255 255 255 255 255 255 194 139 154 136 36 50 159 96 76 255 249 196 254 253 196 222 191 164 167 20 32 239 34 40 240 31 31 239 32 41 244 28 40 235 19 28 232 18 26 245 22 36 246 22 35 232 29 35 234 28 35 237 26 36 237 26 36 241 24 35 224 22 30 176 121 130 255 255 255 255 255 255 
255 255 255 255 255 255 255 255 255 255 255 255 255 255 255 255 255 255 255 255 255 255 255 255 255 255 255 255 255 255 255 255 255 255 255 255 255 255 255 255 255 255 255 255 255 255 255 255 255 255 255 254 254 255 250 252 255 253 253 255 255 255 255 252 255 255 255 255 255 167 98 118 149 53 62 114 7 15 156 23 37 236 29 48 237 26 37 240 25 37 238 25 38 235 28 37 241 25 37 244 23 37 230 32 30 235 28 33 237 26 36 237 26 35 237 26 35 236 27 36 244 24 36 220 9 18 182 126 136 255 255 255 255 255 255 
255 255 255 255 255 255 255 255 255 255 255 255 255 255 255 255 255 255 255 255 255 255 255 255 255 255 255 255 255 255 255 255 255 255 255 255 255 255 255 255 255 255 255 255 255 255 255 255 255 255 255 254 254 254 254 253 251 254 255 252 253 255 253 252 254 252 252 255 255 255 255 255 255 255 255 222 188 203 141 15 29 237 33 35 241 28 31 237 27 33 239 26 31 233 30 30 233 30 30 236 28 31 244 23 38 237 26 35 234 29 32 235 27 40 236 28 35 242 23 29 244 23 36 182 35 48 197 164 176 255 255 255 255 255 255 
255 255 255 255 255 255 255 255 255 255 255 255 255 255 255 255 255 255 255 255 255 255 255 255 255 255 255 255 255 255 255 255 255 255 255 255 255 255 255 255 255 255 255 255 255 255 255 255 255 255 255 255 255 255 255 255 255 255 255 255 255 255 255 255 255 255 255 255 255 255 255 255 255 255 254 255 255 255 233 212 221 141 0 0 221 9 29 233 30 43 242 23 30 238 26 38 237 26 38 235 27 39 239 26 36 236 27 37 234 27 37 243 22 35 241 23 31 232 41 54 145 32 39 188 143 153 255 255 255 249 255 250 255 255 255 
255 255 255 255 255 255 255 255 255 255 255 255 255 255 255 255 255 255 255 255 255 255 255 255 255 255 255 255 255 255 255 255 255 255 255 255 255 255 255 255 255 255 255 255 255 255 255 255 255 255 255 255 255 255 255 255 255 255 255 255 255 255 255 255 255 255 255 255 255 255 255 255 255 253 255 251 255 255 255 255 255 196 176 177 182 137 148 140 44 53 212 34 48 236 24 32 245 23 31 239 26 26 241 25 31 239 25 30 240 26 31 214 37 40 157 24 37 148 65 80 247 240 244 255 255 255 253 255 255 255 252 251 255 255 255 
255 255 255 255 255 255 255 255 255 255 255 255 255 255 255 255 255 255 255 255 255 255 255 255 255 255 255 255 255 255 255 255 255 255 255 255 255 255 255 255 255 255 255 255 255 255 255 255 255 255 255 255 255 255 255 255 255 255 255 255 255 255 255 255 255 255 255 255 255 255 255 255 253 254 255 255 252 253 249 253 252 255 255 255 255 255 255 255 255 255 181 137 143 154 53 68 161 36 51 161 39 46 160 38 54 158 38 53 156 33 48 164 88 105 248 255 255 255 255 255 255 255 255 255 255 251 252 255 252 254 254 255 255 255 255 
255 255 255 255 255 255 255 255 255 255 255 255 255 255 255 255 255 255 255 255 255 255 255 255 255 255 255 255 255 255 255 255 255 255 255 255 255 255 255 255 255 255 255 255 255 255 255 255 255 255 255 255 255 255 255 255 255 255 255 255 255 255 255 255 255 255 255 255 255 255 255 255 255 255 255 255 255 255 255 255 255 255 255 255 255 255 255 255 255 255 255 255 255 255 255 255 255 255 255 255 255 255 255 255 255 255 255 255 255 255 255 255 255 255 255 255 255 255 255 255 255 255 255 255 255 255 255 255 255 255 255 255 255 255 255 
